<svg width="21" height="20" viewBox="0 0 21 20" fill="none" xmlns="http://www.w3.org/2000/svg">
<path d="M11.5987 19.5068H1.80336C1.07906 19.5068 0.492722 18.92 0.492722 18.1952V8.41213C0.492722 7.68728 1.07906 7.10049 1.80336 7.10049H11.5937C12.318 7.10049 12.9044 7.68728 12.9044 8.41213V18.1952C12.9093 18.92 12.323 19.5068 11.5987 19.5068Z" fill="white"/>
<path d="M11.5987 20H1.80336C0.808063 20 0 19.1913 0 18.1953V8.41225C0 7.41619 0.808063 6.60751 1.80336 6.60751H11.5937C12.589 6.60751 13.3971 7.41619 13.3971 8.41225V18.1953C13.402 19.1913 12.594 20 11.5987 20ZM1.80336 7.59371C1.35006 7.59371 0.985442 7.96353 0.985442 8.41225V18.1953C0.985442 18.6489 1.35498 19.0138 1.80336 19.0138H11.5937C12.047 19.0138 12.4116 18.644 12.4116 18.1953V8.41225C12.4116 7.9586 12.0421 7.59371 11.5937 7.59371H1.80336Z" fill="black"/>
<path d="M4.29181 12.6133H2.38005C2.16818 12.6133 2.00066 12.4407 2.00066 12.2336V10.3204C2.00066 10.1084 2.17311 9.94073 2.38005 9.94073H4.29181C4.50368 9.94073 4.6712 10.1133 4.6712 10.3204V12.2336C4.6712 12.4457 4.49875 12.6133 4.29181 12.6133Z" fill="white"/>
<path d="M5.16393 13.1065H3.25217C2.7693 13.1065 2.38005 12.717 2.38005 12.2337V10.3205C2.38005 9.83727 2.7693 9.44772 3.25217 9.44772H5.16393C5.64679 9.44772 6.03604 9.83727 6.03604 10.3205V12.2337C6.03604 12.717 5.64187 13.1065 5.16393 13.1065ZM3.36549 12.1203H5.0506V10.4339H3.36549V12.1203Z" fill="black"/>
<path d="M4.29181 17.0909H2.38005C2.16818 17.0909 2.00066 16.9183 2.00066 16.7112V14.798C2.00066 14.5859 2.17311 14.4183 2.38005 14.4183H4.29181C4.50368 14.4183 4.6712 14.5909 4.6712 14.798V16.7112C4.6712 16.9232 4.49875 17.0909 4.29181 17.0909Z" fill="white"/>
<path d="M5.16393 17.5839H3.25217C2.7693 17.5839 2.38005 17.1944 2.38005 16.7111V14.7979C2.38005 14.3147 2.7693 13.9251 3.25217 13.9251H5.16393C5.64679 13.9251 6.03604 14.3147 6.03604 14.7979V16.7111C6.03604 17.1944 5.64187 17.5839 5.16393 17.5839ZM3.36549 16.5977H5.0506V14.9113H3.36549V16.5977Z" fill="black"/>
<path d="M19.1966 19.4772H9.40626C8.68196 19.4772 8.09563 18.8904 8.09563 18.1656V1.80462C8.09563 1.07977 8.68196 0.492981 9.40626 0.492981H19.1966C19.9209 0.492981 20.5073 1.07977 20.5073 1.80462V18.1606C20.5073 18.8904 19.9209 19.4772 19.1966 19.4772Z" fill="white"/>
<path d="M19.1966 19.9704H9.40627C8.41097 19.9704 7.60291 19.1617 7.60291 18.1657V1.80473C7.59799 0.808678 8.41097 0 9.40627 0H19.1966C20.1919 0 21 0.808678 21 1.80473V18.1607C21 19.1617 20.1919 19.9704 19.1966 19.9704ZM9.40627 0.986193C8.95297 0.986193 8.58835 1.35602 8.58835 1.80473V18.1607C8.58835 18.6144 8.9579 18.9793 9.40627 18.9793H19.1966C19.6499 18.9793 20.0146 18.6095 20.0146 18.1607V1.80473C20.0146 1.35108 19.645 0.986193 19.1966 0.986193H9.40627Z" fill="black"/>
<path d="M17.7678 12.5839H15.856C15.6441 12.5839 15.4766 12.4114 15.4766 12.2042V10.291C15.4766 10.079 15.6491 9.91135 15.856 9.91135H17.7678C17.9796 9.91135 18.1472 10.0839 18.1472 10.291V12.2042C18.1521 12.4114 17.9796 12.5839 17.7678 12.5839Z" fill="white"/>
<path d="M17.7678 13.077H15.856C15.3731 13.077 14.9839 12.6874 14.9839 12.2042V10.291C14.9839 9.80773 15.3731 9.41818 15.856 9.41818H17.7678C18.2506 9.41818 18.6399 9.80773 18.6399 10.291V12.2042C18.6448 12.6874 18.2506 13.077 17.7678 13.077ZM15.9693 12.0908H17.6544V10.4044H15.9693V12.0908Z" fill="black"/>
<path d="M12.8898 12.5839H10.9781C10.7662 12.5839 10.5987 12.4114 10.5987 12.2042V10.291C10.5987 10.079 10.7711 9.91135 10.9781 9.91135H12.8898C13.1017 9.91135 13.2692 10.0839 13.2692 10.291V12.2042C13.2692 12.4114 13.0968 12.5839 12.8898 12.5839Z" fill="white"/>
<path d="M12.8898 13.077H10.9781C10.4952 13.077 10.106 12.6874 10.106 12.2042V10.291C10.106 9.80773 10.4952 9.41818 10.9781 9.41818H12.8898C13.3727 9.41818 13.7619 9.80773 13.7619 10.291V12.2042C13.7619 12.6874 13.3678 13.077 12.8898 13.077ZM11.0914 12.0908H12.7765V10.4044H11.0914V12.0908Z" fill="black"/>
<path d="M17.7678 17.0613H15.856C15.6441 17.0613 15.4766 16.8887 15.4766 16.6816V14.7684C15.4766 14.5563 15.6491 14.3887 15.856 14.3887H17.7678C17.9796 14.3887 18.1472 14.5613 18.1472 14.7684V16.6816C18.1521 16.8887 17.9796 17.0613 17.7678 17.0613Z" fill="white"/>
<path d="M17.7678 17.5544H15.856C15.3731 17.5544 14.9839 17.1648 14.9839 16.6816V14.7684C14.9839 14.2851 15.3731 13.8956 15.856 13.8956H17.7678C18.2506 13.8956 18.6399 14.2851 18.6399 14.7684V16.6816C18.6448 17.1648 18.2506 17.5544 17.7678 17.5544ZM15.9693 16.5682H17.6544V14.8818H15.9693V16.5682Z" fill="black"/>
<path d="M12.8898 17.0613H10.9781C10.7662 17.0613 10.5987 16.8887 10.5987 16.6816V14.7684C10.5987 14.5563 10.7711 14.3887 10.9781 14.3887H12.8898C13.1017 14.3887 13.2692 14.5613 13.2692 14.7684V16.6816C13.2692 16.8887 13.0968 17.0613 12.8898 17.0613Z" fill="white"/>
<path d="M12.8898 17.5544H10.9781C10.4952 17.5544 10.106 17.1648 10.106 16.6816V14.7684C10.106 14.2851 10.4952 13.8956 10.9781 13.8956H12.8898C13.3727 13.8956 13.7619 14.2851 13.7619 14.7684V16.6816C13.7619 17.1648 13.3678 17.5544 12.8898 17.5544ZM11.0914 16.5682H12.7765V14.8818H11.0914V16.5682Z" fill="black"/>
<path d="M16.3832 7.5443H12.2148C11.9241 7.5443 11.6876 7.30761 11.6876 7.01669V2.84509C11.6876 2.55416 11.9241 2.31747 12.2148 2.31747H16.3832C16.6739 2.31747 16.9104 2.55416 16.9104 2.84509V7.01669C16.9104 7.30761 16.6739 7.5443 16.3832 7.5443Z" fill="white"/>
<path d="M16.3832 8.03751H12.2148C11.6531 8.03751 11.1949 7.57893 11.1949 7.0168V2.8452C11.1949 2.28307 11.6531 1.82449 12.2148 1.82449H16.3832C16.9449 1.82449 17.4031 2.28307 17.4031 2.8452V7.0168C17.4031 7.57893 16.9449 8.03751 16.3832 8.03751ZM12.2148 2.81069C12.1951 2.81069 12.1803 2.82548 12.1803 2.8452V7.0168C12.1803 7.03653 12.1951 7.05132 12.2148 7.05132H16.3832C16.4029 7.05132 16.4177 7.03653 16.4177 7.0168V2.8452C16.4177 2.82548 16.4029 2.81069 16.3832 2.81069H12.2148Z" fill="black"/>
<path d="M14.299 6.78016C14.028 6.78016 13.8063 6.55827 13.8063 6.28707V3.57504C13.8063 3.30383 14.028 3.08194 14.299 3.08194C14.57 3.08194 14.7917 3.30383 14.7917 3.57504V6.28707C14.7917 6.55827 14.57 6.78016 14.299 6.78016Z" fill="black"/>
<path d="M15.6539 5.42424H12.944C12.673 5.42424 12.4513 5.20235 12.4513 4.93115C12.4513 4.65994 12.673 4.43805 12.944 4.43805H15.6539C15.9249 4.43805 16.1467 4.65994 16.1467 4.93115C16.1467 5.20235 15.9249 5.42424 15.6539 5.42424Z" fill="black"/>
</svg>
