<svg width="29" height="29" viewBox="0 0 29 29" fill="none" xmlns="http://www.w3.org/2000/svg">
<path d="M14.5 0C6.51449 0 0 6.51449 0 14.5C0 22.4855 6.51449 29 14.5 29C22.4855 29 29 22.4855 29 14.5C29 6.51449 22.4855 0 14.5 0ZM1.51304 14.5C1.51304 9.16232 4.74927 4.53913 9.37246 2.56377C8.86812 3.11014 8.36377 3.74058 7.94348 4.45507C6.30435 7.14493 5.42174 10.7174 5.42174 14.5C5.42174 18.2826 6.34638 21.8551 7.98551 24.5449C8.4058 25.2594 8.91014 25.8899 9.41449 26.4362C4.74927 24.4609 1.51304 19.8377 1.51304 14.5ZM13.7435 27.3188C9.91884 26.6884 6.93478 21.1826 6.93478 14.5C6.93478 7.81739 9.91884 2.35362 13.7435 1.68116V27.3188ZM15.2565 27.3188V1.68116C19.0812 2.31159 22.0652 7.81739 22.0652 14.5C22.0652 21.1826 19.0812 26.6464 15.2565 27.3188ZM19.6275 26.4362C20.1319 25.8899 20.6362 25.2594 21.0565 24.5449C22.6957 21.8551 23.6203 18.2826 23.6203 14.5C23.6203 10.7174 22.6957 7.14493 21.0565 4.45507C20.6362 3.74058 20.1319 3.11014 19.6275 2.56377C24.2507 4.53913 27.487 9.16232 27.487 14.5C27.487 19.8377 24.2507 24.4609 19.6275 26.4362Z" fill="black"/>
</svg>
