<svg width="22" height="22" viewBox="0 0 22 22" fill="none" xmlns="http://www.w3.org/2000/svg">
<path d="M14.5 4L18 7.5" stroke="black" stroke-width="2"/>
<path d="M1.82965 20.8226C1.62133 20.8226 1.41797 20.7432 1.25925 20.5994C1.05589 20.4159 0.966614 20.148 1.01125 19.8802L1.72053 15.6692C1.75029 15.5005 1.82965 15.3517 1.94869 15.2327L16.1789 1.24057C16.5013 0.923135 17.0271 0.918175 17.3544 1.23561L20.752 4.49929C20.9107 4.65305 20.995 4.85144 21 5.06968C21 5.28792 20.9157 5.49128 20.7619 5.64504L6.67556 19.4983C6.5714 19.6024 6.43748 19.6768 6.29364 19.7116L2.04293 20.8028C1.97349 20.8176 1.89909 20.8226 1.82965 20.8226ZM16.7691 1.49849C16.6799 1.49849 16.5906 1.52825 16.5261 1.59769L2.29589 15.5898C2.25125 15.6345 2.21653 15.694 2.20661 15.7535L1.49733 19.9645C1.48245 20.0637 1.51717 20.1629 1.59157 20.2324C1.67589 20.3117 1.79989 20.3415 1.91397 20.3117L6.16468 19.2205C6.2242 19.2056 6.27876 19.1759 6.31844 19.1362L20.4048 5.28296C20.4643 5.22344 20.499 5.14904 20.4941 5.06472C20.4941 4.98536 20.4594 4.906 20.3998 4.85144L17.0023 1.58777C16.9477 1.52825 16.8584 1.49849 16.7691 1.49849Z" fill="black" stroke="black"/>
</svg>
