<svg width="39" height="33" viewBox="0 0 39 33" fill="none" xmlns="http://www.w3.org/2000/svg">
<path d="M15.421 2.24862C17.2912 -0.74954 21.7168 -0.74954 23.587 2.24862L38.2817 25.795C40.2478 28.9417 37.946 33 34.1987 33H4.80245C1.04828 33 -1.24669 28.9484 0.719452 25.795L15.421 2.24862Z" fill="#FAED48"/>
<path d="M19.6273 10.3855C20.2439 10.3855 20.744 10.8785 20.744 11.4862V21.7907C20.744 22.3984 20.2439 22.8914 19.6273 22.8914C19.0108 22.8914 18.5107 22.3984 18.5107 21.7907V11.493C18.5038 10.8785 19.0108 10.3855 19.6273 10.3855Z" fill="white"/>
<path d="M19.6273 25.3493C20.2439 25.3493 20.744 25.8422 20.744 26.45C20.744 27.0577 20.2439 27.5507 19.6273 27.5507C19.0108 27.5507 18.5107 27.0577 18.5107 26.45C18.5038 25.849 19.0108 25.3493 19.6273 25.3493Z" fill="white"/>
</svg>
