<svg width="35" height="35" viewBox="0 0 35 35" fill="none" xmlns="http://www.w3.org/2000/svg">
<path fill-rule="evenodd" clip-rule="evenodd" d="M12.1933 33.3297L12.7364 33.1851L12.7999 33.1811C12.806 33.1795 12.8112 33.1749 12.8164 33.1703C12.8217 33.1657 12.8269 33.161 12.8329 33.1594C12.8297 33.1474 12.8418 33.1442 12.8418 33.1442C13.3318 32.8974 13.6755 32.5863 13.9089 32.201C13.9504 32.1383 13.9888 32.0764 14.0273 32.0145C14.0657 31.9525 14.1042 31.8906 14.1456 31.8279C14.1855 31.7591 14.2283 31.6896 14.2712 31.62C14.3141 31.5504 14.357 31.4809 14.3968 31.4121L15.4241 29.6395C17.0304 26.8858 18.6986 24.0251 20.3281 21.2135C20.8241 20.3578 21.3047 19.4932 21.7766 18.6439C21.8651 18.4911 21.9499 18.3361 22.0346 18.1811C22.1193 18.0261 22.2041 17.8711 22.2927 17.7183C22.3369 17.6419 22.4046 17.5075 22.4328 17.3708C22.5312 16.8664 22.5145 16.3669 22.4045 15.9051C22.3704 15.7768 22.3402 15.6508 22.3103 15.5263C22.2812 15.4049 22.2524 15.2849 22.2207 15.1657C22.1608 14.9167 22.0994 14.6616 22.038 14.4066C21.9766 14.1515 21.9152 13.8965 21.8553 13.6475C21.8453 13.6096 21.8376 13.5676 21.8303 13.5275C21.8236 13.4909 21.8173 13.4558 21.8096 13.427C21.8304 13.4215 21.8585 13.4164 21.8905 13.4106C21.9328 13.403 21.9819 13.3941 22.03 13.3813L22.4106 13.3058C22.8635 13.2111 23.3406 13.11 23.8025 13C24.4968 12.841 24.9596 12.3948 25.1401 11.7135L25.3552 10.9196C25.5462 10.1902 25.7432 9.45048 25.9411 8.70735C26.1615 7.87955 26.383 7.04746 26.5988 6.22052C26.8534 5.23517 27.1017 4.22569 27.3322 3.24677C27.3648 3.11427 27.3983 2.98032 27.432 2.84545C27.5074 2.54391 27.5839 2.23781 27.6546 1.93323L27.6659 1.87854L27.5695 1.51648L27.5478 1.48349C27.3959 1.25254 27.1635 1.10762 26.8755 1.09381L26.8361 1.09138L26.4861 1.18453L26.4442 1.22152C26.4278 1.23237 26.4143 1.24242 26.4008 1.25247C26.3873 1.26252 26.3738 1.27257 26.3573 1.28342C26.337 1.29936 26.3173 1.31417 26.298 1.32871C26.2462 1.3677 26.1971 1.40474 26.1449 1.45628L26.136 1.47156C26.0093 1.5933 25.8818 1.71525 25.7539 1.83753C25.3936 2.18207 25.0307 2.52917 24.6761 2.88109C24.1549 3.38257 23.6395 3.88734 23.1256 4.39066C22.7974 4.71212 22.4697 5.03298 22.1416 5.352C21.8412 5.64484 21.5415 5.93626 21.2425 6.22704C20.5613 6.88955 19.8835 7.5487 19.2072 8.21369C19.031 8.37691 18.9038 8.57877 18.8015 8.82569C18.6058 9.30426 18.5951 9.79819 18.7879 10.3284C18.9766 10.8474 19.1453 11.3841 19.3106 11.9099L19.3213 11.944L19.3341 11.9923L19.347 12.0406C19.3381 12.0559 19.3261 12.0591 19.3019 12.0655C19.0131 12.1941 18.721 12.3106 18.4136 12.4182C18.1063 12.5259 17.7869 12.6368 17.4763 12.7323C17.1086 12.8561 16.7288 12.983 16.3491 13.1099C15.8277 13.2874 15.4478 13.6082 15.1853 14.0787C14.8931 14.583 14.5888 15.0905 14.2933 15.5826C14.051 15.9832 13.7909 16.4142 13.5518 16.8268C11.506 20.3566 9.43682 23.9443 7.42965 27.4251L7.32338 27.6085C7.13739 27.9294 6.99005 28.2012 6.86684 28.4666C6.68485 28.8511 6.67581 29.2541 6.69655 29.6233L6.85716 30.2268L6.87001 30.275C7.15451 30.8584 7.63541 31.2086 8.08176 31.4775C8.9439 31.9976 9.70793 32.4404 10.4197 32.8325C10.9175 33.1006 11.5095 33.3825 12.1933 33.3297ZM25.3279 4.11625L25.8414 3.61772L25.2257 5.96566C24.9895 6.87499 24.7556 7.7805 24.5217 8.68601C24.2877 9.59152 24.0538 10.497 23.8177 11.4064C23.7717 11.5737 23.6905 11.6082 23.6181 11.6275C23.2528 11.7118 22.8875 11.7961 22.5343 11.8772L22.3501 11.9133C22.2624 11.9237 22.19 11.943 22.1055 11.9655L22.1055 11.9655C21.9004 12.0201 21.7041 12.0594 21.5166 12.0834C21.1932 12.1308 20.8842 12.3293 20.662 12.6598C20.4189 13.0089 20.3406 13.4432 20.437 13.8053C20.5913 14.3851 20.731 14.9564 20.8734 15.539L20.8818 15.5737C20.9456 15.8134 20.9972 16.0639 21.0413 16.2779C21.0549 16.344 21.0678 16.4066 21.0801 16.4643C21.1484 16.7693 21.0919 17.0427 20.9446 17.3146C20.732 17.6813 20.5225 18.0472 20.3129 18.4132C20.1034 18.7791 19.8939 19.145 19.6813 19.5118C19.162 20.4254 18.625 21.3696 18.0848 22.3017C17.6202 23.0974 17.154 23.8978 16.6878 24.6982C15.7555 26.299 14.8232 27.8998 13.9038 29.4626L13.2009 30.6577C12.994 30.9971 12.7839 31.3244 12.6004 31.6059C12.387 31.9212 11.9558 32.0489 11.6292 31.8902C11.0309 31.5843 10.3955 31.2364 9.61941 30.7968C9.22211 30.5666 8.80633 30.3154 8.34713 29.9982C8.06244 29.8026 7.95245 29.3408 8.11751 29.0384C8.70689 27.951 9.30269 26.8878 9.90171 25.8367C11.7583 22.6158 13.6623 19.3306 15.3449 16.4274L15.3451 16.427C15.5045 16.152 15.676 15.8737 15.8387 15.6107C16.0013 15.3477 16.1728 15.0695 16.3322 14.7944C16.4739 14.5499 16.6775 14.3924 16.976 14.3C17.6212 14.1024 18.3237 13.8767 19.1194 13.6132C19.3543 13.5248 19.5981 13.4212 19.8178 13.3239L19.8299 13.3207C20.4438 13.0539 20.9027 12.3502 20.6175 11.5215C20.5538 11.3297 20.4922 11.1343 20.431 10.9401C20.3673 10.7377 20.3039 10.5367 20.2391 10.3428L20.1122 9.96302L20.048 9.72165L20.0126 9.5889C19.9773 9.45614 19.9878 9.34996 20.1399 9.19316C20.3146 9.0239 20.4854 8.85243 20.6562 8.68096C20.8271 8.50949 20.9979 8.33802 21.1725 8.16877C21.4502 7.90101 21.7158 7.63647 21.9814 7.37193C22.5412 6.82877 23.0979 6.28641 23.6547 5.74406C24.2114 5.20172 24.7681 4.65939 25.3279 4.11625Z" fill="#E4973D"/>
</svg>
