<svg width="33" height="35" viewBox="0 0 33 35" fill="none" xmlns="http://www.w3.org/2000/svg">
<path d="M13.5995 32.5863L2.43653 24.2664C1.79156 23.7831 1.36662 23.0608 1.25477 22.2578C1.14291 21.4548 1.35325 20.6365 1.83973 19.982L14.8952 2.46521C15.3831 1.81228 16.1071 1.37727 16.9082 1.25556C17.7094 1.13385 18.5225 1.33539 19.1691 1.81597L30.332 10.1358C30.9773 10.6181 31.4028 11.3396 31.5151 12.1422C31.6275 12.9448 31.4175 13.7628 30.9312 14.417L17.8758 31.9338C17.3876 32.5871 16.6635 33.0225 15.862 33.1448C15.0606 33.267 14.247 33.0662 13.5995 32.5863ZM18.2109 3.10161C17.9013 2.8722 17.5124 2.7761 17.1292 2.83431C16.746 2.89252 16.3997 3.10031 16.1659 3.41226L3.11042 20.9291C2.87703 21.2422 2.7759 21.6341 2.8292 22.0187C2.88249 22.4033 3.08587 22.7493 3.39473 22.9808L14.5577 31.3006C14.8678 31.5305 15.2575 31.6265 15.6413 31.5676C16.0251 31.5088 16.3717 31.2999 16.6051 30.9868L29.6605 13.47C29.8927 13.1568 29.9928 12.7655 29.9391 12.3816C29.8854 11.9978 29.6821 11.6526 29.3738 11.4215L18.2109 3.10161Z" fill="#FF2B84"/>
<path d="M16.0374 11.4807C15.5307 11.101 15.1494 10.5776 14.9419 9.97692C14.7345 9.3762 14.7102 8.7252 14.8721 8.10644C15.034 7.48768 15.3748 6.92903 15.8514 6.50132C16.328 6.07361 16.9188 5.7961 17.549 5.70397C18.1792 5.61184 18.8204 5.70924 19.3913 5.98383C19.9622 6.25841 20.437 6.69781 20.7556 7.24631C21.0743 7.79482 21.2223 8.42774 21.1811 9.06482C21.1398 9.70191 20.911 10.3145 20.5238 10.8248C20.0073 11.5056 19.2456 11.9567 18.405 12.0795C17.5645 12.2024 16.7133 11.9871 16.0374 11.4807ZM18.9432 7.58202C18.6876 7.39354 18.3814 7.2856 18.0629 7.27175C17.7445 7.2579 17.428 7.33875 17.1532 7.50417C16.8784 7.66958 16.6574 7.91218 16.5181 8.20155C16.3788 8.49092 16.3272 8.81417 16.37 9.13076C16.4127 9.44735 16.5478 9.74318 16.7584 9.98114C16.9689 10.2191 17.2454 10.3886 17.5534 10.4684C17.8613 10.5482 18.1869 10.5347 18.4892 10.4296C18.7916 10.3246 19.0573 10.1326 19.2531 9.8778C19.3841 9.70549 19.4801 9.50918 19.5353 9.30025C19.5906 9.09132 19.6041 8.87393 19.575 8.66067C19.546 8.44742 19.475 8.24254 19.3661 8.05793C19.2572 7.87333 19.1126 7.71265 18.9408 7.58523L18.9432 7.58202Z" fill="#FF2B84"/>
<path d="M21.9652 15.8987C21.4572 15.5201 21.0745 14.9973 20.8656 14.3968C20.6568 13.7962 20.6311 13.1449 20.792 12.5255C20.9528 11.9061 21.2929 11.3466 21.7691 10.9179C22.2453 10.4893 22.8361 10.2108 23.4665 10.1178C24.0969 10.0249 24.7386 10.1216 25.31 10.3958C25.8815 10.67 26.3569 11.1093 26.6761 11.6579C26.9952 12.2065 27.1436 12.8397 27.1025 13.4771C27.0614 14.1145 26.8326 14.7275 26.4452 15.2381C25.9295 15.9178 25.1694 16.3685 24.3304 16.4922C23.4913 16.6159 22.6412 16.4026 21.9652 15.8987ZM24.8709 12C24.616 11.8101 24.31 11.7006 23.9913 11.6854C23.6726 11.6701 23.3554 11.7498 23.0797 11.9144C22.804 12.079 22.582 12.3211 22.4417 12.6103C22.3013 12.8996 22.2488 13.2231 22.2909 13.5401C22.3329 13.8572 22.4675 14.1536 22.6778 14.3922C22.8881 14.6308 23.1647 14.801 23.4729 14.8812C23.781 14.9614 24.107 14.9482 24.4097 14.8432C24.7125 14.7382 24.9786 14.5461 25.1745 14.2911C25.3051 14.1193 25.4009 13.9237 25.4562 13.7155C25.5116 13.5072 25.5254 13.2906 25.497 13.0779C25.4685 12.8652 25.3984 12.6608 25.2905 12.4763C25.1826 12.2919 25.0392 12.1311 24.8685 12.0032L24.8709 12Z" fill="#FF2B84"/>
<path d="M11.486 17.5875C10.9803 17.2086 10.5995 16.6867 10.3917 16.0875C10.1839 15.4883 10.1585 14.8388 10.3185 14.221C10.4785 13.6032 10.8169 13.0447 11.2909 12.6161C11.7649 12.1876 12.3532 11.9081 12.9817 11.813C13.6101 11.718 14.2504 11.8116 14.8218 12.082C15.3932 12.3524 15.87 12.7876 16.192 13.3325C16.5141 13.8774 16.6669 14.5076 16.6312 15.1436C16.5955 15.7796 16.3729 16.3929 15.9915 16.9059C15.7371 17.2472 15.4187 17.5356 15.0545 17.7546C14.6904 17.9736 14.2875 18.119 13.8691 18.1823C13.4506 18.2456 13.0248 18.2256 12.6159 18.1236C12.207 18.0215 11.823 17.8393 11.486 17.5875ZM14.3917 13.6888C14.135 13.4995 13.8273 13.3914 13.5075 13.3783C13.1877 13.3651 12.8701 13.4475 12.5949 13.6149C12.3197 13.7824 12.0992 14.0274 11.9614 14.319C11.8236 14.6106 11.7746 14.9357 11.8206 15.2532C11.8666 15.5706 12.0056 15.8662 12.22 16.1026C12.4343 16.3389 12.7144 16.5054 13.0249 16.5809C13.3353 16.6564 13.6621 16.6377 13.964 16.5269C14.2659 16.4162 14.5292 16.2185 14.7208 15.9589C14.8486 15.7865 14.9416 15.5909 14.9943 15.3833C15.0471 15.1757 15.0587 14.9601 15.0283 14.7489C14.998 14.5378 14.9263 14.3351 14.8175 14.1527C14.7087 13.9702 14.5648 13.8115 14.3941 13.6856L14.3917 13.6888Z" fill="#FF2B84"/>
<path d="M17.4137 22.0055C16.9067 21.6276 16.5244 21.106 16.3152 20.5068C16.1061 19.9076 16.0794 19.2576 16.2386 18.639C16.3978 18.0205 16.7358 17.4611 17.2097 17.0317C17.6836 16.6023 18.2722 16.3221 18.9011 16.2266C19.53 16.131 20.1709 16.2244 20.7428 16.495C21.3146 16.7655 21.7918 17.2011 22.1139 17.7465C22.4361 18.292 22.5887 18.9228 22.5524 19.5593C22.5162 20.1958 22.2928 20.8094 21.9105 21.3224C21.3971 22.0094 20.6354 22.4671 19.7924 22.5952C18.9494 22.7232 18.094 22.5112 17.4137 22.0055ZM20.3194 18.1068C20.0636 17.9161 19.7563 17.8065 19.4363 17.7918C19.1164 17.7772 18.7983 17.8582 18.5222 18.0245C18.2462 18.1909 18.0246 18.4351 17.8855 18.7264C17.7465 19.0176 17.6962 19.3427 17.7411 19.6605C17.786 19.9783 17.924 20.2746 18.1377 20.5117C18.3513 20.7489 18.631 20.9164 18.9414 20.9929C19.2518 21.0695 19.5788 21.0516 19.8811 20.9417C20.1835 20.8317 20.4475 20.6346 20.6398 20.3753C20.8984 20.0284 21.0101 19.5941 20.9505 19.1681C20.8909 18.742 20.6647 18.3591 20.3218 18.1035L20.3194 18.1068Z" fill="#FF2B84"/>
<path d="M6.93442 23.6943C6.42901 23.3156 6.04837 22.794 5.84051 22.1952C5.63265 21.5964 5.60688 20.9473 5.76644 20.3297C5.92601 19.7121 6.26377 19.1537 6.73712 18.7249C7.21046 18.2962 7.7982 18.0162 8.42619 17.9204C9.05418 17.8246 9.69429 17.9173 10.2658 18.1867C10.8373 18.456 11.3146 18.8901 11.6375 19.4341C11.9603 19.9781 12.1143 20.6077 12.08 21.2434C12.0457 21.8791 11.8247 22.4926 11.4447 23.0063C11.1911 23.3492 10.873 23.6391 10.5086 23.8595C10.1443 24.0798 9.74088 24.2261 9.3217 24.2901C8.90251 24.354 8.47579 24.3343 8.06608 24.2321C7.65638 24.1298 7.27178 23.947 6.93442 23.6943ZM9.84015 19.7956C9.58321 19.6061 9.27513 19.498 8.95495 19.4851C8.63477 19.4721 8.3169 19.5548 8.04161 19.7228C7.76632 19.8908 7.54601 20.1364 7.40858 20.4286C7.27116 20.7207 7.22282 21.0463 7.26968 21.3639C7.31653 21.6816 7.45649 21.9771 7.6718 22.213C7.88711 22.449 8.16809 22.6146 8.47914 22.6891C8.79019 22.7636 9.1173 22.7434 9.41903 22.6313C9.72076 22.5192 9.98353 22.3201 10.174 22.0592C10.302 21.8867 10.3951 21.691 10.448 21.4832C10.5009 21.2754 10.5127 21.0597 10.4826 20.8483C10.4525 20.6369 10.3811 20.434 10.2725 20.2512C10.1639 20.0683 10.0203 19.9092 9.84973 19.7827L9.84015 19.7956Z" fill="#FF2B84"/>
<path d="M12.8622 28.1123C12.355 27.7343 11.9727 27.2126 11.7635 26.6132C11.5544 26.0138 11.5279 25.3636 11.6873 24.7449C11.8468 24.1262 12.185 23.5668 12.6592 23.1375C13.1335 22.7082 13.7224 22.4283 14.3515 22.3331C14.9806 22.2379 15.6216 22.3318 16.1935 22.6029C16.7653 22.874 17.2422 23.31 17.5639 23.8559C17.8856 24.4018 18.0376 25.033 18.0007 25.6697C17.9638 26.3063 17.7396 26.9197 17.3565 27.4324C16.8434 28.1191 16.0818 28.5765 15.2391 28.704C14.3965 28.8314 13.5415 28.6186 12.8622 28.1123ZM15.7679 24.2136C15.5122 24.023 15.205 23.9134 14.8853 23.8987C14.5655 23.884 14.2475 23.9648 13.9715 24.1309C13.6955 24.297 13.4739 24.5409 13.3346 24.8318C13.1954 25.1228 13.1448 25.4476 13.1893 25.7653C13.2338 26.0831 13.3713 26.3793 13.5845 26.6167C13.7976 26.8541 14.0769 27.022 14.387 27.0991C14.697 27.1761 15.0239 27.159 15.3263 27.0497C15.6287 26.9405 15.893 26.7441 16.0859 26.4854C16.2159 26.3135 16.311 26.118 16.3659 25.9101C16.4208 25.7021 16.4343 25.4857 16.4056 25.2734C16.377 25.0611 16.3067 24.8571 16.1989 24.673C16.0911 24.4889 15.9479 24.3284 15.7775 24.2007L15.7679 24.2136Z" fill="#FF2B84"/>
</svg>
