<svg width="28" height="37" viewBox="0 0 28 37" fill="none" xmlns="http://www.w3.org/2000/svg">
<path d="M21.3305 15.547C22.0318 14.2913 21.4472 12.3154 20.5298 11.0436C20.5727 10.992 20.6102 10.9262 20.6476 10.8604L23.2951 5.61355C24.1149 4.19702 23.1175 3.32788 22.4562 2.94062C21.4083 2.32696 20.4452 2.54137 19.8976 3.5034L16.5976 8.46683L16.5836 8.4915C16.5508 8.54905 16.5134 8.61483 16.4908 8.67835C15.0251 8.48881 13.0941 8.78322 12.2407 10.2349L2.38468 27.5739C1.23332 29.5966 2.33201 32.4327 4.83476 33.8983C6.04544 34.6073 7.4002 34.8963 8.65263 34.6979C9.90037 34.5076 10.9027 33.8667 11.4597 32.8883L21.3305 15.547ZM17.682 19.5499L13.6101 26.7035L6.59018 22.5926L10.6621 15.439L17.682 19.5499ZM17.455 9.86793L17.4974 9.38841C17.5035 9.28236 17.5346 9.17999 17.5814 9.09777L20.8814 4.13434L20.8955 4.10967C21.3167 3.36965 21.744 3.61988 21.978 3.75691C22.5579 4.0965 22.6287 4.40108 22.2683 5.03422L19.6209 10.2811C19.5694 10.3716 19.4976 10.4501 19.4054 10.5167L19.0171 10.7937L19.3907 11.2098C20.0595 11.9413 20.9192 13.8151 20.2834 14.9558L18.1352 18.7299L11.0847 14.6011L13.233 10.827C13.9499 9.59136 15.8539 9.51133 16.8778 9.73818L17.455 9.86793ZM9.55532 33.2312C9.19047 33.467 8.7481 33.6246 8.26809 33.7053C7.30257 33.8525 6.24896 33.6301 5.30279 33.0761C3.3596 31.9381 2.50812 29.7402 3.40206 28.1697L6.11197 23.4088L13.1522 27.5317L10.4423 32.2925C10.2372 32.6767 9.93502 32.9931 9.55532 33.2312Z" fill="#58E255"/>
<path d="M4.75117 34.0689C2.1365 32.5377 0.988362 29.5741 2.19121 27.4609L12.0472 10.1219C12.8998 8.6478 14.794 8.29894 16.3386 8.46893C16.3527 8.44426 16.3714 8.41137 16.3901 8.37848L16.4042 8.35382L19.7042 3.39039C20.3033 2.33791 21.3899 2.09716 22.5497 2.77636C23.1499 3.12787 24.4353 4.11081 23.5086 5.73886L20.8658 10.9775C20.8471 11.0104 20.8237 11.0515 20.8049 11.0844C21.7147 12.4175 22.2491 14.3859 21.544 15.6723L11.6732 33.0136C11.0928 34.0332 10.0569 34.7092 8.74505 34.9167C7.42771 35.1101 6.01272 34.8077 4.75117 34.0689ZM22.3625 3.10526C21.4265 2.55713 20.6017 2.74294 20.101 3.62275L20.0963 3.63097L16.7869 8.61084C16.7588 8.66017 16.7261 8.71773 16.7081 8.77303L16.663 8.90006L16.5128 8.8779C15.0722 8.69205 13.2553 8.97656 12.4588 10.352L2.60284 27.691C1.50296 29.6232 2.55222 32.3317 4.94306 33.7318C6.10288 34.411 7.39741 34.6867 8.59042 34.4973C9.78343 34.3079 10.742 33.6962 11.2709 32.767L21.1418 15.4258C21.8055 14.2358 21.2548 12.3674 20.3687 11.1359L20.2747 11.0151L20.3457 10.9142C20.3886 10.8626 20.4214 10.805 20.4542 10.7474L23.0969 5.50877C23.7943 4.28362 23.0848 3.52826 22.3625 3.10526ZM5.2192 33.2467C3.16409 32.0432 2.26316 29.7176 3.20859 28.0567L6.01211 23.1314L13.4593 27.4925L10.6558 32.4178C10.4265 32.8207 10.1149 33.1535 9.7157 33.4021C9.32664 33.6567 8.86473 33.8247 8.35501 33.9099C7.3199 34.0602 6.21623 33.8305 5.2192 33.2467ZM6.23185 23.6986L3.61554 28.295C2.77308 29.775 3.57513 31.8453 5.40641 32.9178C6.29154 33.4361 7.28492 33.6451 8.19102 33.5069C8.6515 33.4367 9.05948 33.2919 9.40948 33.0584C9.75947 32.8248 10.0476 32.5331 10.2489 32.1795L12.8652 27.5831L6.23185 23.6986ZM13.7198 26.9873L6.29293 22.638L10.552 15.1556L17.9789 19.5048L13.7198 26.9873ZM6.88709 22.5474L13.5001 26.42L17.3847 19.5954L10.7718 15.7228L6.88709 22.5474ZM18.2699 19.0174L10.8227 14.6563L13.0646 10.7177C13.8283 9.39981 15.8362 9.30393 16.9305 9.55009L17.2567 9.6205L17.286 9.33069C17.3015 9.20819 17.3318 9.08343 17.3926 8.97653L17.3973 8.96831L17.402 8.96009L20.7114 3.98022C21.2215 3.08397 21.8523 3.45335 22.0863 3.59038C22.89 4.06105 22.8282 4.55106 22.4865 5.1513L19.8437 10.39C19.7735 10.5133 19.6923 10.6083 19.5853 10.6772L19.3525 10.8478L19.5757 11.0991C20.2344 11.8247 21.2271 13.7984 20.5165 15.0706L18.2699 19.0174ZM11.4168 14.5657L18.0603 18.4561L20.115 14.8465C20.6992 13.7962 19.8671 11.9933 19.2554 11.3282L18.7315 10.7473L19.265 10.3581C19.333 10.3101 19.3853 10.2421 19.4376 10.1741L22.0749 4.92121C22.4212 4.31274 22.2912 4.15986 21.8944 3.9275C21.6909 3.80835 21.4366 3.6594 21.109 4.23498L21.0949 4.25964L17.7949 9.22307C17.7575 9.28885 17.7357 9.37477 17.7233 9.44424L17.6577 10.1075L16.8998 9.93773C15.9259 9.71826 14.1314 9.79662 13.4613 10.95L11.4168 14.5657Z" fill="#58E255"/>
</svg>
