<svg width="37" height="42" viewBox="0 0 37 42" fill="none" xmlns="http://www.w3.org/2000/svg">
<path d="M9.70056 36.7944L9.55066 36.7099C7.26289 35.4159 5.58445 33.2626 4.88345 30.7221C4.18246 28.1816 4.51615 25.4615 5.81134 23.1583L13.7033 9.16432C15.0042 6.86428 17.1593 5.17133 19.6959 4.45678C22.2326 3.74223 24.9438 4.06441 27.2347 5.35267L27.3846 5.43721C29.6724 6.73117 31.3509 8.88452 32.0519 11.425C32.7528 13.9654 32.4192 16.6856 31.124 18.9888L23.232 32.9828C21.9323 35.284 19.7772 36.9781 17.24 37.6927C14.7029 38.4074 11.9912 38.0843 9.70056 36.7944ZM26.0206 7.50559C24.2979 6.53596 22.2588 6.2932 20.351 6.83063C18.4431 7.36805 16.8224 8.64172 15.8448 10.372L7.95279 24.3659C6.97795 26.0978 6.72654 28.1437 7.25377 30.0544C7.78099 31.9651 9.04375 33.5845 10.7648 34.5569L10.9147 34.6415C12.6374 35.6111 14.6765 35.8539 16.5843 35.3164C18.4922 34.779 20.1129 33.5054 21.0906 31.7751L28.9825 17.7811C29.9574 16.0492 30.2088 14.0034 29.6815 12.0927C29.1543 10.182 27.8916 8.5626 26.1705 7.59012L26.0206 7.50559Z" fill="#1ABB5B"/>
<path d="M16.6314 12.9437C16.3474 12.7836 16.139 12.5166 16.052 12.2015C15.9651 11.8863 16.0067 11.5489 16.1677 11.2634C17.1337 9.55046 18.7371 8.28937 20.6249 7.75757C22.5128 7.22578 24.5306 7.46684 26.2345 8.42773C26.5185 8.58788 26.7268 8.85488 26.8138 9.17C26.9007 9.48512 26.8591 9.82254 26.6981 10.108C26.5371 10.3935 26.2699 10.6037 25.9553 10.6923C25.6406 10.781 25.3043 10.7408 25.0203 10.5806C23.8844 9.94005 22.5392 9.77934 21.2806 10.1339C20.0221 10.4884 18.9532 11.3291 18.3091 12.4711C18.2294 12.6125 18.1228 12.7368 17.9953 12.8371C17.8679 12.9373 17.7221 13.0115 17.5663 13.0554C17.4105 13.0993 17.2477 13.112 17.0873 13.0929C16.9269 13.0737 16.772 13.023 16.6314 12.9437Z" fill="#1ABB5B"/>
<path d="M25.5004 26.4583L10.2212 17.8415C9.93722 17.6814 9.72884 17.4144 9.64189 17.0993C9.55494 16.7841 9.59654 16.4467 9.75755 16.1612C9.91856 15.8757 10.1858 15.6656 10.5004 15.5769C10.8151 15.4883 11.1514 15.5285 11.4353 15.6886L26.7146 24.3054C26.9985 24.4656 27.2069 24.7326 27.2939 25.0477C27.3808 25.3628 27.3392 25.7002 27.1782 25.9857C27.0172 26.2712 26.75 26.4814 26.4353 26.57C26.1207 26.6587 25.7844 26.6185 25.5004 26.4583Z" fill="#1ABB5B"/>
</svg>
