<svg width="42" height="38" viewBox="0 0 42 38" fill="none" xmlns="http://www.w3.org/2000/svg">
<path d="M29.9922 2.204L29.088 1.6882C27.7966 1.04358 26.0564 1.43248 25.4147 2.72443L25.3507 2.9182L24.709 4.21015L24.0674 5.5021L23.1632 4.9863C22.2591 4.4705 20.9701 4.79444 20.4564 5.69886L8.32238 27.4694C8.06556 27.9216 8.00236 28.4382 8.1328 29.0193C8.26324 29.6003 8.5865 29.9229 9.03858 30.1808L16.9175 34.6295C17.3696 34.8874 17.8857 34.9515 18.4658 34.8219C18.5946 34.7572 18.7234 34.6925 18.8522 34.6279C19.2387 34.4338 19.4315 34.1754 19.7532 33.8522L31.8872 12.0817C32.144 11.6295 32.2072 11.1129 32.0768 10.5319C31.9463 9.95082 31.6231 9.62824 31.171 9.37034L29.8148 8.59664L30.4564 7.30469L31.0981 6.01273L31.0333 5.88365C31.8686 4.6561 31.3484 2.9777 29.9922 2.204ZM30.5958 11.4371L18.3969 33.0785C18.3329 33.2723 18.2041 33.337 18.0753 33.4017C17.9465 33.4663 17.7528 33.4019 17.5592 33.3375L9.68024 28.8888C9.68024 28.8888 9.61542 28.7597 9.55061 28.6306C9.4858 28.5015 9.5498 28.3078 9.6138 28.114L21.7478 6.34348C21.8767 6.2788 21.8118 6.14971 21.9407 6.08503C22.0695 6.02035 22.2631 6.08476 22.4567 6.14917L23.2961 6.53588L28.9147 9.6951L30.2709 10.4688C30.4645 10.5332 30.5293 10.6623 30.5942 10.7914C30.595 11.1142 30.531 11.308 30.5958 11.4371ZM28.3297 7.88762L25.1652 6.08231L25.8068 4.79036L28.9714 6.59566L28.3297 7.88762ZM29.8707 5.17435L29.8067 5.36812L26.6421 3.56281L26.7061 3.36905C27.027 2.72307 27.7359 2.52876 28.3816 2.85107L29.3505 3.49595C29.9962 3.81826 30.1915 4.52837 29.8707 5.17435Z" fill="#15AF62"/>
<path d="M23.0465 9.89377L26.8568 12.0214L18.4464 27.0734L14.7009 25.0749L23.0465 9.89377Z" fill="white"/>
<path d="M27.7569 10.9229L23.4946 8.53741C23.2361 8.34392 22.9137 8.34419 22.656 8.47355C22.3984 8.60291 22.0119 8.79695 21.9479 8.99071L13.2807 24.495C13.0878 24.7534 13.0887 25.0763 13.2183 25.3344C13.3479 25.5926 13.4775 25.8508 13.736 26.0443L17.9335 28.3007C18.192 28.4942 18.5144 28.4939 18.8369 28.4937C18.9657 28.429 18.9657 28.429 19.0945 28.3643C19.3521 28.2349 19.4809 28.1703 19.6738 27.9118L28.341 12.4076C28.5979 11.9553 28.4026 11.2452 27.7569 10.9229ZM26.8568 12.0214L18.4463 27.0734L14.6361 24.9458L23.0465 9.89377L26.8568 12.0214Z" fill="#15AF62"/>
</svg>
