<svg width="25" height="29" viewBox="0 0 25 29" fill="none" xmlns="http://www.w3.org/2000/svg">
<path d="M23.1103 8.93656H1.88046V2.25604C1.88166 1.65806 2.12792 1.0849 2.56531 0.662058C3.0027 0.239219 3.59559 0.00115777 4.21416 0L20.7857 0C21.4027 0.00346677 21.9932 0.242547 22.4287 0.665137C22.8641 1.08773 23.1091 1.65957 23.1103 2.25604V8.93656ZM3.68398 7.18429H21.2977V2.25604C21.2966 2.12428 21.2426 1.99809 21.147 1.9041C21.0515 1.81011 20.9219 1.75567 20.7857 1.75227H4.21416C4.07632 1.75341 3.94445 1.80685 3.84698 1.90108C3.74951 1.99531 3.69423 2.12279 3.69304 2.25604L3.68398 7.18429Z" fill="#CE66FF"/>
<path d="M22.1497 28.9999H2.85483C2.09805 28.9988 1.37262 28.7076 0.837494 28.1903C0.302373 27.673 0.00121364 26.9717 1.52588e-05 26.2401L1.52588e-05 9.93967C0.00121583 9.20848 0.30252 8.50764 0.837771 7.99102C1.37302 7.4744 2.09847 7.18423 2.85483 7.18423H22.1497C22.9057 7.18423 23.6307 7.47454 24.1652 7.99128C24.6997 8.50803 25 9.20889 25 9.93967V26.2401C25 26.9713 24.6999 27.6726 24.1655 28.1901C23.6311 28.7075 22.9061 28.9988 22.1497 28.9999ZM2.89561 8.9365C2.75604 8.93242 2.61703 8.95525 2.48669 9.00367C2.35636 9.05209 2.2373 9.12513 2.13648 9.21852C2.03566 9.31191 1.95509 9.42377 1.89948 9.54759C1.84387 9.67141 1.81434 9.8047 1.81259 9.93967V26.2401C1.81259 26.5073 1.9224 26.7636 2.11786 26.9526C2.31331 27.1415 2.57841 27.2477 2.85483 27.2477H22.1497C22.4254 27.2465 22.6893 27.1399 22.8838 26.951C23.0783 26.7622 23.1874 26.5066 23.1874 26.2401V9.93967C23.1862 9.67397 23.0765 9.41948 22.8822 9.2316C22.6878 9.04371 22.4246 8.93765 22.1497 8.9365H2.89561Z" fill="#CE66FF"/>
<path d="M24.9999 24.0016H8.49188V12.5418H24.9999V24.0016ZM10.3045 22.2494H23.1874V14.2941H10.3045V22.2494Z" fill="#CE66FF"/>
<path d="M7.22323 8.93656C6.98287 8.93656 6.75235 8.84425 6.58239 8.67994C6.41242 8.51564 6.31694 8.29279 6.31694 8.06042V0.876133C6.31694 0.643768 6.41242 0.42092 6.58239 0.256613C6.75235 0.0923066 6.98287 0 7.22323 0C7.46359 0 7.69411 0.0923066 7.86407 0.256613C8.03404 0.42092 8.12952 0.643768 8.12952 0.876133V8.06042C8.12952 8.29279 8.03404 8.51564 7.86407 8.67994C7.69411 8.84425 7.46359 8.93656 7.22323 8.93656Z" fill="#CE66FF"/>
<path d="M12.5023 8.93656C12.262 8.93656 12.0315 8.84425 11.8615 8.67994C11.6915 8.51564 11.5961 8.29279 11.5961 8.06042V0.876133C11.5961 0.643768 11.6915 0.42092 11.8615 0.256613C12.0315 0.0923066 12.262 0 12.5023 0C12.7427 0 12.9732 0.0923066 13.1432 0.256613C13.3131 0.42092 13.4086 0.643768 13.4086 0.876133V8.06042C13.4086 8.29279 13.3131 8.51564 13.1432 8.67994C12.9732 8.84425 12.7427 8.93656 12.5023 8.93656Z" fill="#CE66FF"/>
<path d="M17.2558 8.93656C17.0154 8.93656 16.7849 8.84425 16.615 8.67994C16.445 8.51564 16.3495 8.29279 16.3495 8.06042V0.876133C16.3495 0.643768 16.445 0.42092 16.615 0.256613C16.7849 0.0923066 17.0154 0 17.2558 0C17.4962 0 17.7267 0.0923066 17.8967 0.256613C18.0666 0.42092 18.1621 0.643768 18.1621 0.876133V8.06042C18.1621 8.29279 18.0666 8.51564 17.8967 8.67994C17.7267 8.84425 17.4962 8.93656 17.2558 8.93656Z" fill="#CE66FF"/>
</svg>
