<svg width="33" height="34" viewBox="0 0 33 34" fill="none" xmlns="http://www.w3.org/2000/svg">
<path d="M30.6502 13.0785L24.7067 1.5196C24.3612 0.841763 23.7737 0.360141 23.0826 0.128249C22.3915 -0.103643 21.6313 -0.0144536 20.9748 0.342303L3.59362 9.84987C2.93708 10.2066 2.45331 10.8131 2.24598 11.5445C2.02137 12.2758 2.10776 13.0428 2.43603 13.7207L2.67792 14.1845C2.90252 14.131 3.12713 14.1131 3.36902 14.1131H4.28472L3.73184 13.025C3.55907 12.7039 3.52451 12.3293 3.64546 11.9904C3.74912 11.6515 3.99101 11.3482 4.302 11.1877L21.6486 1.64447C21.9596 1.46609 22.3224 1.44825 22.6507 1.53744C22.979 1.64447 23.2727 1.87636 23.4282 2.19744L29.3716 13.7742C29.4235 13.8812 29.458 13.9704 29.4926 14.0774H29.6308C30.1146 14.0774 30.5638 14.1845 30.9784 14.3628C30.9612 13.9347 30.8575 13.4888 30.6502 13.0785Z" fill="#FF2B84"/>
<path d="M23.9292 6.74604C23.8774 6.15739 23.6528 5.58658 23.2899 5.1228C22.9271 4.65901 22.4433 4.3201 21.8905 4.14172C21.3376 3.96334 20.7501 3.96334 20.1973 4.12388C19.6444 4.30226 19.1433 4.62334 18.7805 5.08712C18.4177 5.55091 18.1758 6.10388 18.124 6.69253C18.0721 7.28118 18.1758 7.88766 18.4522 8.40496C18.8151 9.10064 19.4198 9.63577 20.1627 9.86766C20.8884 10.0996 21.6831 10.0282 22.3742 9.67145C22.8925 9.40388 23.3072 8.97577 23.5836 8.44064C23.8601 7.94118 23.981 7.35253 23.9292 6.74604ZM22.4261 7.47739C22.3742 7.67361 22.2706 7.85199 22.1496 7.99469C22.0287 8.15523 21.8732 8.2801 21.7004 8.36929C21.4412 8.51199 21.1475 8.5655 20.8711 8.52983C20.5946 8.49415 20.3182 8.36929 20.0936 8.19091C19.869 7.99469 19.7135 7.74496 19.6271 7.45956C19.5407 7.17415 19.5407 6.87091 19.6271 6.5855C19.7135 6.3001 19.8863 6.05037 20.1109 5.85415C20.3355 5.65793 20.6119 5.55091 20.8884 5.51523C21.1821 5.47955 21.4585 5.55091 21.7177 5.69361C21.9768 5.83631 22.1842 6.05037 22.3224 6.31793C22.4088 6.49631 22.4606 6.69253 22.4952 6.88874C22.5124 7.08496 22.4779 7.28118 22.4261 7.47739Z" fill="#FF2B84"/>
<path d="M27.0911 12.8823C27.0393 12.2936 26.8147 11.7228 26.4519 11.259C26.089 10.7952 25.6053 10.4563 25.0524 10.2779C24.4995 10.0996 23.9121 10.0996 23.3592 10.2601C22.8063 10.4385 22.3226 10.7596 21.9424 11.2234C21.5796 11.6871 21.3377 12.2401 21.2859 12.8288C21.2513 13.2569 21.2859 13.685 21.4241 14.0774C21.476 14.2379 21.5451 14.3985 21.6142 14.5412C21.666 14.6482 21.7351 14.7731 21.8215 14.8801C22.0461 15.2012 22.3226 15.4688 22.6508 15.6828H25.7435C26.0718 15.4688 26.3482 15.2012 26.5728 14.8801C26.6419 14.7909 26.6938 14.6839 26.7456 14.5769C26.832 14.4163 26.9011 14.2379 26.9529 14.0774C27.0739 13.7028 27.1257 13.2925 27.0911 12.8823ZM25.2943 14.1309C25.1733 14.2915 25.0178 14.4163 24.8451 14.5055C24.5859 14.6482 24.2922 14.7017 24.0157 14.6661C23.722 14.6304 23.4629 14.5055 23.2383 14.3093C23.1691 14.2379 23.1 14.1666 23.0309 14.0952C22.91 13.9347 22.8236 13.7742 22.7718 13.5779C22.6854 13.2925 22.7027 12.9893 22.789 12.7039C22.8754 12.4185 23.0482 12.1688 23.2728 11.9725C23.4974 11.7763 23.7739 11.6693 24.0676 11.6336C24.3613 11.6158 24.655 11.6693 24.8969 11.812C25.1561 11.9547 25.3634 12.1688 25.5016 12.4363C25.588 12.6147 25.6398 12.8109 25.6571 13.0071C25.6744 13.2034 25.6571 13.4174 25.6053 13.5958C25.5534 13.7742 25.4671 13.9347 25.3634 14.0774C25.3116 14.1131 25.3116 14.1131 25.2943 14.1309Z" fill="#FF2B84"/>
<path d="M17.8821 10.0461C17.8303 9.45743 17.6057 8.88662 17.2429 8.44067C16.88 7.97689 16.3963 7.63797 15.8434 7.45959C15.2905 7.28121 14.7031 7.28121 14.1502 7.45959C13.5973 7.63797 13.1136 7.95905 12.7507 8.42283C12.3879 8.88662 12.146 9.43959 12.0942 10.0282C12.0423 10.6169 12.146 11.2055 12.4225 11.7407C12.5952 12.0974 12.8371 12.4007 13.1481 12.6504C13.4418 12.9001 13.7874 13.0963 14.1502 13.2034C14.513 13.3282 14.8931 13.3639 15.2905 13.3282C15.6706 13.2926 16.0334 13.1677 16.379 12.9893C16.88 12.7039 17.2947 12.2758 17.5711 11.7585C17.813 11.2412 17.934 10.6347 17.8821 10.0461ZM16.379 10.7774C16.3272 10.9736 16.2408 11.152 16.1026 11.2947C15.9816 11.4553 15.8261 11.5801 15.6533 11.6693C15.3942 11.812 15.1005 11.8655 14.824 11.8477C14.5303 11.812 14.2539 11.705 14.0293 11.5088C13.8219 11.3126 13.6492 11.0628 13.5628 10.7774C13.4764 10.492 13.4764 10.1888 13.5628 9.90337C13.6492 9.61797 13.8046 9.36824 14.0293 9.17202C14.2539 8.97581 14.5303 8.86878 14.824 8.8331C15.1177 8.79743 15.3942 8.86878 15.6533 9.01148C15.9125 9.15418 16.1198 9.36824 16.2581 9.63581C16.3444 9.81418 16.4135 10.0104 16.4308 10.2066C16.4654 10.385 16.4308 10.5812 16.379 10.7774Z" fill="#FF2B84"/>
<path d="M11.8179 13.3639C11.766 12.7752 11.5414 12.2044 11.1786 11.7585C10.8158 11.2947 10.332 10.9558 9.77912 10.7774C9.22624 10.599 8.6388 10.599 8.08592 10.7774C7.53304 10.9558 7.04927 11.2769 6.68645 11.7406C6.32362 12.2044 6.09901 12.7574 6.0299 13.346C6.01263 13.5958 6.01263 13.8455 6.04718 14.0952C6.08174 14.3628 6.16812 14.6482 6.27179 14.8979C6.28907 14.9515 6.32362 15.005 6.3409 15.0585C6.46184 15.2904 6.61734 15.5044 6.79011 15.7006H11.0404C11.2131 15.5044 11.3514 15.2904 11.4723 15.0763C11.5069 15.0228 11.5241 14.9693 11.5587 14.8979C11.6796 14.6482 11.7487 14.3628 11.7833 14.0952C11.8351 13.8455 11.8351 13.5958 11.8179 13.3639ZM10.0556 14.6125C9.96917 14.7196 9.8655 14.8266 9.74456 14.8979C9.69273 14.9336 9.65817 14.9515 9.60634 14.9871C9.34718 15.1298 9.05346 15.2012 8.77702 15.1655C8.51786 15.1477 8.27598 15.0406 8.06865 14.8979C8.03409 14.8801 8.01681 14.8444 7.98226 14.8266C7.75765 14.6304 7.60215 14.3806 7.51577 14.0952C7.42938 13.8098 7.42938 13.5066 7.51577 13.2212C7.60215 12.9358 7.75765 12.686 7.98226 12.4898C8.20687 12.2936 8.48331 12.1866 8.77702 12.1509C9.07074 12.1152 9.36446 12.1866 9.60634 12.3115C9.8655 12.4542 10.0728 12.6682 10.2111 12.9358H10.2283C10.3147 13.1142 10.3838 13.3104 10.4011 13.5066C10.4184 13.7028 10.4011 13.899 10.3493 14.0952C10.2802 14.2736 10.1765 14.452 10.0556 14.6125Z" fill="#FF2B84"/>
<path d="M30.9785 14.3807C30.5639 14.2023 30.1147 14.0953 29.6309 14.0953H3.36911C3.12723 14.0953 2.90262 14.1131 2.67801 14.1666C1.15759 14.4877 0 15.8969 0 17.5737V29.525C0 31.4337 1.52042 33.0034 3.36911 33.0034H29.6309C31.4969 33.0034 33 31.4337 33 29.525V17.5737C33 16.1466 32.1707 14.9158 30.9785 14.3807ZM31.445 29.525C31.445 30.5596 30.633 31.398 29.6309 31.398H3.36911C2.36702 31.398 1.55497 30.5596 1.55497 29.525V17.5737C1.55497 16.5391 2.36702 15.7007 3.36911 15.7007H29.6309C29.9592 15.7007 30.2702 15.7899 30.5466 15.9504C31.0822 16.2715 31.445 16.878 31.445 17.5737V29.525Z" fill="#FF2B84"/>
<path d="M27.4713 20.2493C27.4713 20.6952 27.1257 21.052 26.6938 21.052H6.47915C6.37548 21.052 6.27182 21.0342 6.18543 20.9985C5.89171 20.8736 5.70166 20.5882 5.70166 20.2493C5.70166 20.1958 5.70166 20.1244 5.71894 20.0709C5.78805 19.7142 6.09904 19.4466 6.47915 19.4466H17.7268C17.986 19.4823 18.2624 19.4823 18.5216 19.4466H26.6938C27.1257 19.4466 27.4713 19.8034 27.4713 20.2493Z" fill="#FF2B84"/>
<path d="M25.8298 26.4925C25.8298 26.9385 25.5015 27.2952 25.0868 27.2952H7.7748C7.42925 27.2952 7.11826 27.0455 7.03187 26.7244C7.03187 26.7066 7.01459 26.6709 7.01459 26.6531C6.99731 26.5995 6.99731 26.546 6.99731 26.4925C6.99731 26.439 6.99731 26.3855 7.01459 26.332C7.01459 26.3141 7.03187 26.2785 7.03187 26.2606C7.13553 25.9217 7.42925 25.6898 7.7748 25.6898H25.0868C25.5015 25.6898 25.8298 26.0466 25.8298 26.4925Z" fill="#FF2B84"/>
</svg>
