<svg width="36" height="36" viewBox="0 0 36 36" fill="none" xmlns="http://www.w3.org/2000/svg">
<path d="M25.2296 30.7037L2.48102 7.9586L7.96036 2.47919L30.7052 25.2281L25.2296 30.7037ZM4.6392 7.9586L25.2296 28.5493L28.547 25.2319L7.95655 4.64121L4.6392 7.9586Z" fill="#1BBEE1"/>
<path d="M31.4144 34.936L25.1267 28.6482L28.6499 25.1249L34.9376 31.4127L31.4144 34.936ZM27.2849 28.6482L31.4144 32.7892L32.7909 31.4127L28.6499 27.2831L27.2849 28.6482Z" fill="#1BBEE1"/>
<path d="M23.2011 32.408C23.0508 32.4074 22.904 32.3623 22.7791 32.2785C22.6543 32.1946 22.5571 32.0758 22.4996 31.9368C22.4422 31.7979 22.4271 31.645 22.4562 31.4975C22.4854 31.35 22.5575 31.2144 22.6635 31.1077L31.1132 22.6618C31.1825 22.5851 31.2665 22.5233 31.3604 22.4801C31.4542 22.4369 31.5559 22.4132 31.6591 22.4105C31.7624 22.4078 31.8651 22.426 31.9611 22.4642C32.0571 22.5024 32.1444 22.5597 32.2175 22.6326C32.2907 22.7055 32.3483 22.7926 32.3868 22.8884C32.4254 22.9843 32.444 23.087 32.4416 23.1902C32.4393 23.2935 32.416 23.3952 32.3731 23.4892C32.3303 23.5832 32.2687 23.6675 32.1923 23.737L23.7388 32.1907C23.5952 32.3311 23.402 32.4092 23.2011 32.408Z" fill="#1BBEE1"/>
<path d="M5.71827 6.47904C5.61764 6.47912 5.51799 6.45929 5.42506 6.42067C5.33213 6.38206 5.24777 6.32544 5.17682 6.25407L0.219861 1.29706C0.0783303 1.15367 -0.000709634 0.960096 4.80146e-06 0.758623C0.000719237 0.55715 0.0811299 0.364145 0.223674 0.221764C0.366559 0.0797254 0.559843 0 0.761314 0C0.962784 0 1.15607 0.0797254 1.29895 0.221764L6.25591 5.17878C6.36192 5.28542 6.43404 5.42102 6.4632 5.56853C6.49236 5.71604 6.47727 5.86888 6.41981 6.00784C6.36235 6.1468 6.2651 6.26566 6.14028 6.3495C6.01546 6.43334 5.86864 6.47841 5.71827 6.47904Z" fill="#1BBEE1"/>
<path d="M30.0379 35.9999C29.8864 36.0008 29.7381 35.9566 29.6119 35.8728C29.4857 35.7891 29.3872 35.6697 29.3291 35.5298C29.2711 35.3899 29.2559 35.2358 29.2857 35.0873C29.3155 34.9388 29.3889 34.8025 29.4964 34.6958L34.6974 29.4948C34.7683 29.4239 34.8524 29.3677 34.945 29.3294C35.0376 29.291 35.1368 29.2713 35.237 29.2713C35.3372 29.2713 35.4364 29.291 35.529 29.3294C35.6216 29.3677 35.7057 29.4239 35.7765 29.4948C35.8474 29.5656 35.9036 29.6498 35.9419 29.7423C35.9803 29.8349 36 29.9341 36 30.0343C36 30.1345 35.9803 30.2338 35.9419 30.3263C35.9036 30.4189 35.8474 30.503 35.7765 30.5739L30.5755 35.7788C30.4325 35.9206 30.2393 36.0001 30.0379 35.9999Z" fill="#1BBEE1"/>
<path d="M9.08904 9.19393C8.93756 9.19481 8.78926 9.15056 8.66303 9.06683C8.5368 8.98309 8.43837 8.86366 8.38029 8.72376C8.3222 8.58387 8.30709 8.42984 8.33689 8.28132C8.36668 8.1328 8.44003 7.99652 8.54758 7.88986L10.3969 6.04051C10.4678 5.96965 10.5519 5.91345 10.6445 5.8751C10.737 5.83675 10.8363 5.81702 10.9365 5.81702C11.0367 5.81702 11.1359 5.83675 11.2285 5.8751C11.321 5.91345 11.4051 5.96965 11.476 6.04051C11.5469 6.11136 11.6031 6.19548 11.6414 6.28806C11.6798 6.38063 11.6995 6.47985 11.6995 6.58006C11.6995 6.68026 11.6798 6.77949 11.6414 6.87206C11.6031 6.96464 11.5469 7.04876 11.476 7.11961L9.62667 8.96896C9.48431 9.11217 9.29097 9.19308 9.08904 9.19393Z" fill="#1BBEE1"/>
<path d="M12.5818 10.9098C12.4303 10.9106 12.282 10.8664 12.1558 10.7827C12.0296 10.6989 11.9311 10.5795 11.8731 10.4396C11.815 10.2997 11.7999 10.1457 11.8297 9.99715C11.8595 9.84863 11.9328 9.71235 12.0404 9.60568L13.0089 8.64097C13.152 8.49787 13.346 8.41748 13.5484 8.41748C13.7508 8.41748 13.9449 8.49787 14.088 8.64097C14.2311 8.78407 14.3114 8.97815 14.3114 9.18052C14.3114 9.38289 14.2311 9.57698 14.088 9.72008L13.108 10.6733C12.9703 10.818 12.7814 10.9029 12.5818 10.9098Z" fill="#1BBEE1"/>
<path d="M15.1671 13.5065C14.9657 13.5067 14.7724 13.4272 14.6294 13.2853C14.5585 13.2145 14.5023 13.1304 14.4639 13.0378C14.4255 12.9452 14.4058 12.846 14.4058 12.7458C14.4058 12.6456 14.4255 12.5463 14.4639 12.4538C14.5023 12.3612 14.5585 12.2771 14.6294 12.2062L15.5941 11.2377C15.665 11.1669 15.7491 11.1107 15.8417 11.0723C15.9342 11.034 16.0335 11.0142 16.1337 11.0142C16.2339 11.0142 16.3331 11.034 16.4257 11.0723C16.5182 11.1107 16.6024 11.1669 16.6732 11.2377C16.7441 11.3086 16.8003 11.3927 16.8386 11.4853C16.877 11.5778 16.8967 11.6771 16.8967 11.7773C16.8967 11.8775 16.877 11.9767 16.8386 12.0693C16.8003 12.1618 16.7441 12.246 16.6732 12.3168L15.7085 13.2853C15.6373 13.356 15.5527 13.4119 15.4598 13.4499C15.3669 13.4878 15.2674 13.5071 15.1671 13.5065Z" fill="#1BBEE1"/>
<path d="M16.8829 16.9881C16.6826 16.9903 16.4895 16.9136 16.3453 16.7746C16.2744 16.7037 16.2182 16.6196 16.1798 16.527C16.1414 16.4345 16.1216 16.3352 16.1216 16.235C16.1216 16.1348 16.1414 16.0356 16.1798 15.943C16.2182 15.8504 16.2744 15.7663 16.3453 15.6955L18.1946 13.8461C18.2655 13.7753 18.3496 13.7191 18.4422 13.6807C18.5348 13.6424 18.634 13.6226 18.7342 13.6226C18.8344 13.6226 18.9336 13.6424 19.0262 13.6807C19.1188 13.7191 19.2029 13.7753 19.2737 13.8461C19.3446 13.917 19.4008 14.0011 19.4391 14.0937C19.4775 14.1862 19.4972 14.2855 19.4972 14.3857C19.4972 14.4859 19.4775 14.5851 19.4391 14.6777C19.4008 14.7702 19.3446 14.8544 19.2737 14.9252L17.4244 16.7746C17.2792 16.9145 17.0846 16.9913 16.8829 16.9881Z" fill="#1BBEE1"/>
<path d="M20.3681 18.7037C20.2174 18.7038 20.0701 18.6593 19.9447 18.5758C19.8193 18.4922 19.7214 18.3734 19.6635 18.2343C19.6056 18.0952 19.5901 17.942 19.6192 17.7941C19.6482 17.6463 19.7204 17.5103 19.8267 17.4035L20.7952 16.4387C20.9411 16.3138 21.1287 16.2485 21.3206 16.2559C21.5126 16.2634 21.6946 16.3429 21.8305 16.4787C21.9663 16.6146 22.0458 16.7966 22.0532 16.9886C22.0607 17.1805 21.9954 17.3681 21.8704 17.514L20.9057 18.4826C20.7628 18.6244 20.5695 18.7039 20.3681 18.7037Z" fill="#1BBEE1"/>
<path d="M22.9646 21.3043C22.8142 21.3037 22.6674 21.2586 22.5426 21.1748C22.4178 21.0909 22.3205 20.972 22.2631 20.8331C22.2056 20.6941 22.1905 20.5413 22.2197 20.3938C22.2488 20.2463 22.321 20.1107 22.427 20.004L23.3917 19.0355C23.5348 18.8924 23.7288 18.812 23.9312 18.812C24.1336 18.812 24.3277 18.8924 24.4708 19.0355C24.6139 19.1786 24.6942 19.3727 24.6942 19.5751C24.6942 19.7774 24.6139 19.9715 24.4708 20.1146L23.5061 21.0793C23.4351 21.1507 23.3507 21.2073 23.2578 21.2459C23.1649 21.2845 23.0652 21.3044 22.9646 21.3043Z" fill="#1BBEE1"/>
<path d="M24.6806 24.7818C24.4792 24.782 24.286 24.7025 24.143 24.5607C24.0721 24.4899 24.0158 24.4058 23.9774 24.3132C23.9391 24.2206 23.9193 24.1214 23.9193 24.0211C23.9193 23.9209 23.9391 23.8217 23.9774 23.7291C24.0158 23.6365 24.0721 23.5524 24.143 23.4816L25.9923 21.6322C26.1359 21.4891 26.3305 21.4089 26.5332 21.4093C26.7359 21.4097 26.9302 21.4905 27.0733 21.6341C27.2164 21.7777 27.2966 21.9723 27.2962 22.175C27.2959 22.3778 27.215 22.5721 27.0714 22.7152L25.2221 24.5645C25.0775 24.7059 24.8828 24.784 24.6806 24.7818Z" fill="#1BBEE1"/>
</svg>
