<svg width="33" height="33" viewBox="0 0 33 33" fill="none" xmlns="http://www.w3.org/2000/svg">
<path fill-rule="evenodd" clip-rule="evenodd" d="M0 16.5C0 25.5955 7.40448 33 16.5 33C25.5955 33 33 25.5955 33 16.5C33 7.40448 25.5955 0 16.5 0C7.40448 0 0 7.40448 0 16.5ZM1.80597 16.5C1.80597 8.38955 8.38955 1.80597 16.5 1.80597C24.6104 1.80597 31.194 8.38955 31.194 16.5C31.194 24.6104 24.6104 31.194 16.5 31.194C8.38955 31.194 1.80597 24.6104 1.80597 16.5Z" fill="#333333"/>
<path fill-rule="evenodd" clip-rule="evenodd" d="M15.3343 24.512C15.5642 24.7582 15.8761 24.8731 16.2537 24.8731C16.6313 24.8731 16.9269 24.7418 17.1731 24.4955C17.403 24.2657 17.5179 23.9702 17.5179 23.6418C17.5179 23.297 17.403 23.0179 17.1731 22.7717C16.9433 22.5418 16.6313 22.4105 16.2537 22.4105C15.8597 22.4105 15.5642 22.5418 15.3343 22.7881C15.1209 23.0343 15.006 23.3134 15.006 23.6582C15.006 24.003 15.1209 24.2821 15.3343 24.512ZM15.1866 20.2597H17.1567V19.9478C17.1567 18.6836 17.5179 17.7642 18.306 17.1075C19.3731 16.1388 20.0627 15.3015 20.4567 14.5627C20.8508 13.8075 21.0478 13.003 21.0478 12.1493C21.0478 10.7866 20.6537 9.68658 19.8493 8.8821C19.0448 8.07762 17.9448 7.66718 16.5821 7.66718C15.2522 7.66718 14.1358 8.06121 13.2657 8.84926C12.3955 9.63732 11.9358 10.7045 11.9194 12.0179V12.3463H13.8896V12.0179C13.906 11.2299 14.1522 10.6224 14.6284 10.1791C15.1209 9.71941 15.7448 9.50598 16.5657 9.50598C17.3702 9.50598 17.9776 9.73583 18.4045 10.1955C18.8478 10.6717 19.0612 11.3284 19.0612 12.1657C19.0612 12.5925 18.9955 12.9702 18.897 13.2985C18.7985 13.6269 18.6508 13.9224 18.4537 14.2015C18.2567 14.4806 17.797 14.9896 17.0746 15.6955C16.303 16.4672 15.8105 17.1239 15.5642 17.6985C15.3343 18.2567 15.203 19.012 15.1866 19.9314V20.2597Z" fill="#333333"/>
</svg>
