<svg width="30" height="38" viewBox="0 0 30 38" fill="none" xmlns="http://www.w3.org/2000/svg">
<path d="M27.6037 5.78556L19.446 1.07573C18.6893 0.63884 17.7359 0.883629 17.3081 1.62465L16.5568 2.92594C16.3324 3.31452 16.2898 3.7719 16.439 4.19542L3.56772 26.4892C2.01294 29.1821 2.98354 32.6584 5.73353 34.2461C7.06238 35.0133 8.60958 35.2318 10.083 34.8535C11.5565 34.4752 12.7828 33.5446 13.5341 32.2433L26.4054 9.94952C26.8468 9.86698 27.2216 9.60141 27.446 9.21283L28.1973 7.91153C28.6251 7.17051 28.3604 6.22245 27.6037 5.78556ZM25.8298 8.85807L17.6721 4.14823C17.4322 4.00971 17.3439 3.69369 17.4796 3.45873L18.2309 2.15743C18.3717 1.91344 18.6843 1.84088 18.9243 1.9794L27.0819 6.68924C27.3219 6.82776 27.4153 7.13475 27.2744 7.37874L26.5231 8.68004C26.3875 8.915 26.0697 8.99659 25.8298 8.85807ZM12.6113 31.7105C11.3435 33.9064 8.49771 34.6371 6.25527 33.3424C4.01283 32.0477 3.22271 29.2179 4.49054 27.022L17.1166 5.15294L25.2374 9.84146L12.6113 31.7105Z" fill="#CD06DE"/>
<path d="M5.62917 34.4269C2.77767 32.7806 1.77097 29.1751 3.38315 26.3827L16.2127 4.16125C16.0792 3.71062 16.1374 3.22613 16.3722 2.81948L17.1235 1.51818C17.6087 0.677759 18.6921 0.39959 19.5503 0.895082L27.708 5.60492C28.5662 6.10041 28.867 7.17776 28.3818 8.01818L27.6305 9.31948C27.3957 9.72613 27.0053 10.0188 26.5482 10.1285L13.7187 32.3499C12.9361 33.7054 11.6704 34.6616 10.1392 35.0547C8.60793 35.4479 7.01339 35.2261 5.62917 34.4269ZM19.3416 1.25655C18.6864 0.878275 17.863 1.08968 17.4926 1.73129L16.7413 3.03259C16.5483 3.36695 16.5133 3.76849 16.6372 4.12922L16.6705 4.22074L3.75227 26.5958C2.25488 29.1894 3.18939 32.5363 5.83786 34.0654C7.12057 34.806 8.60197 35.0107 10.0269 34.6525C11.4425 34.289 12.6243 33.3929 13.3495 32.1368L26.2678 9.76172L26.3637 9.7448C26.7381 9.67177 27.0683 9.44072 27.2614 9.10636L28.0127 7.80507C28.3831 7.16345 28.1545 6.34467 27.4993 5.96639L19.3416 1.25655ZM6.1509 33.5232C3.80696 32.17 2.98074 29.2108 4.30596 26.9155L17.0364 4.86573L25.5263 9.76737L12.7958 31.8171C11.4706 34.1125 8.49485 34.8765 6.1509 33.5232ZM17.1968 5.44032L4.67509 27.1286C3.46465 29.2251 4.21867 31.9257 6.3596 33.1618C8.50053 34.3978 11.2163 33.7006 12.4267 31.604L24.9485 9.91573L17.1968 5.44032ZM25.7254 9.0389L17.5677 4.32906C17.2263 4.13193 17.1019 3.68663 17.295 3.35226L18.0463 2.05097C18.2393 1.71661 18.6871 1.60163 19.0286 1.79876L27.1863 6.5086C27.5277 6.70573 27.652 7.15103 27.459 7.48539L26.7077 8.78669C26.5146 9.12105 26.0668 9.23603 25.7254 9.0389ZM18.8199 2.16023C18.6815 2.08031 18.4937 2.12853 18.4154 2.26408L17.6641 3.56538C17.5859 3.70093 17.638 3.88767 17.7764 3.96759L25.9341 8.67743C26.0725 8.75734 26.2603 8.70913 26.3386 8.57358L27.0899 7.27228C27.1681 7.13673 27.116 6.94999 26.9776 6.87007L18.8199 2.16023Z" fill="#CD06DE"/>
<path d="M19.2811 7.00762C18.5972 6.6128 17.709 6.85908 17.3073 7.55491L12.4029 16.0495C12.0012 16.7453 12.232 17.6377 12.9159 18.0325C13.5997 18.4273 14.4879 18.181 14.8896 17.4852L19.794 8.99062C20.1957 8.29478 19.9649 7.40243 19.2811 7.00762ZM13.4376 17.1288C13.2422 17.016 13.1763 16.7611 13.291 16.5622L18.1954 8.06767C18.3102 7.86886 18.564 7.79849 18.7593 7.91129C18.9547 8.0241 19.0207 8.27906 18.9059 8.47787L14.0015 16.9724C13.8868 17.1713 13.633 17.2416 13.4376 17.1288Z" fill="#CD06DE"/>
<path d="M12.9094 18.0399C12.2167 17.6399 11.9859 16.7476 12.3929 16.0427L17.2972 7.54811C17.7042 6.84324 18.5924 6.59696 19.2851 6.9969C19.9778 7.39685 20.2086 8.2892 19.8017 8.99407L14.8973 17.4887C14.4904 18.1935 13.6022 18.4398 12.9094 18.0399ZM19.2747 7.01498C18.5908 6.62016 17.7167 6.86254 17.315 7.55837L12.4106 16.0529C12.0089 16.7488 12.236 17.627 12.9199 18.0218C13.6037 18.4166 14.4778 18.1742 14.8796 17.4784L19.7839 8.98382C20.1857 8.28798 19.9585 7.4098 19.2747 7.01498ZM13.4312 17.1362C13.2269 17.0182 13.1662 16.7543 13.281 16.5554L18.1853 8.06086C18.3053 7.85302 18.568 7.78778 18.7634 7.90058C18.9587 8.01339 19.0284 8.28251 18.9136 8.48132L14.0092 16.9759C13.8892 17.1837 13.6355 17.2541 13.4312 17.1362ZM18.7529 7.91866C18.5664 7.81098 18.3179 7.87231 18.2031 8.07112L13.2987 16.5657C13.1892 16.7555 13.2462 17.0053 13.4416 17.1181C13.637 17.2309 13.8767 17.1645 13.9915 16.9656L18.8958 8.47106C19.0054 8.28129 18.9394 8.02633 18.7529 7.91866Z" fill="#CD06DE"/>
</svg>
