<svg width="18" height="23" viewBox="0 0 18 23" fill="none" xmlns="http://www.w3.org/2000/svg">
<path d="M0 23C0 18.8594 0 14.7447 0 10.5647C0.991802 10.5647 1.95806 10.5647 2.98676 10.5647C2.98676 10.2998 2.98534 10.1001 2.98676 9.90178C2.99811 8.34091 2.93851 6.77462 3.03784 5.21918C3.22371 2.30937 5.90966 0 8.99858 0C12.0903 0 14.7749 2.3053 14.9622 5.21511C15.0615 6.77054 15.0019 8.33684 15.0147 9.8977C15.0161 10.0974 15.0147 10.2984 15.0147 10.562C16.0419 10.562 17.0068 10.562 18 10.562C18 14.742 18 18.8567 18 23C11.9924 23 6.01041 23 0 23ZM12.9998 10.5307C12.9998 8.8055 13.0878 7.13732 12.9786 5.48137C12.8338 3.2929 11.0162 1.84071 8.7375 1.93172C6.6489 2.01595 5.01151 3.70858 4.98455 5.83049C4.97036 7.0531 4.98171 8.27571 4.98171 9.49832C4.98171 9.8325 4.98171 10.1667 4.98171 10.5321C7.68185 10.5307 10.3139 10.5307 12.9998 10.5307Z" fill="white"/>
</svg>
