<svg width="469" height="234" viewBox="0 0 469 234" fill="none" xmlns="http://www.w3.org/2000/svg">
<path d="M17.1661 232.639C17.2605 230.846 -22.777 172.882 19.1176 116.475C61.0122 60.0683 110.02 90.4581 120.077 50.7563C132.636 1.1447 195.132 -12.8233 225.994 12.0611C266.865 44.9992 329.691 1.22335 386.805 23.1506C480.588 59.156 414.126 129.971 435.294 140.243C456.461 150.53 482.193 172.457 454.462 232.026L17.1661 232.639Z" fill="#EBF3FA"/>
<path d="M205.77 69.5693C199.16 59.7854 182.116 69.3963 182.116 69.3963C182.116 69.3963 176.23 92.4876 172.783 94.1707C169.336 95.8537 173.963 73.4389 173.963 73.4389C166.771 75.1534 151.946 89.7663 151.946 89.7663C151.946 89.7663 160.618 111.379 156.872 112.165C153.126 112.952 150.168 92.6291 150.168 92.6291C144.124 96.9548 140.52 106.975 140.52 106.975C137.042 122.468 157.124 126.118 157.124 126.118C157.124 126.118 159.972 133.668 158.257 144.05C158.257 144.05 157.753 146.032 157.612 149.146L159.453 148.517C159.437 147.966 159.437 147.447 159.469 146.928C159.469 146.928 159.469 146.928 159.469 146.912V146.897C159.5 146.566 159.547 146.11 159.595 145.528C159.783 144.238 159.878 143.295 159.925 142.634C160.429 138.607 161.31 133.291 162.601 131.796C162.601 131.796 162.302 131.576 161.924 131.088C162.144 131.309 162.365 131.545 162.601 131.796C168.062 137.459 184.162 133.196 192.314 128.399C200.466 123.601 195.792 122.437 189.701 120.046C183.611 117.655 174.089 122.091 170.627 121.525C167.165 120.958 170.895 117.923 176.891 116.365C182.887 114.808 187.813 119.653 197.555 117.325C207.296 114.997 208.398 94.7998 208.398 94.7998C202.575 99.0469 189.67 99.4558 188.442 97.3638C187.231 95.2717 204.59 89.5776 207.06 87.9731C209.516 86.3372 212.38 79.3375 205.77 69.5693Z" fill="#DFEBFD"/>
<path d="M387.025 222.006C393.414 215.132 382.917 203.65 382.917 203.65C382.917 203.65 363.953 203.225 362.033 200.866C360.113 198.506 378.306 198.066 378.306 198.066C375.693 192.796 361.702 183.94 361.702 183.94C361.702 183.94 346.499 194.527 345.209 191.758C343.934 188.99 359.153 183.075 359.153 183.075C354.714 179.174 346.31 178.183 346.31 178.183C333.673 178.262 334.444 194.479 334.444 194.479C334.444 194.479 329.093 198.034 320.752 198.569C320.752 198.569 319.131 198.522 316.676 198.978L317.494 200.284C317.919 200.173 318.328 200.079 318.737 200H318.753C319.005 199.969 319.383 199.906 319.839 199.859C320.878 199.765 321.617 199.686 322.152 199.591C325.363 199.261 329.644 198.994 331.044 199.717C331.044 199.717 331.155 199.45 331.469 199.057C331.328 199.261 331.186 199.481 331.044 199.717C327.629 204.955 333.83 216.674 339.008 222.116C344.186 227.559 344.249 223.737 345.02 218.593C345.775 213.449 340.629 206.874 340.456 204.09C340.283 201.306 343.304 203.65 345.571 208.023C347.853 212.38 344.973 217.067 348.529 224.193C352.086 231.318 367.966 228.55 367.966 228.55C363.622 224.806 360.994 214.881 362.395 213.559C363.795 212.238 371.334 224.68 373.018 226.301C374.686 227.921 380.635 228.896 387.025 222.006Z" fill="#DFEBFD"/>
<path d="M90.5363 94.1706C94.3134 86.9821 106.715 92.2515 106.715 92.2515C106.715 92.2515 112.507 107.604 114.993 108.485C117.48 109.365 112.601 94.3908 112.601 94.3908C117.653 95.02 128.906 103.876 128.906 103.876C128.906 103.876 124.625 119.322 127.253 119.574C129.881 119.826 130.353 105.7 130.353 105.7C134.823 108.201 138.049 114.777 138.049 114.777C141.606 125.111 128.15 129.138 128.15 129.138C128.15 129.138 126.781 134.517 128.748 141.486C128.748 141.486 129.252 142.807 129.582 144.93L128.276 144.647C128.245 144.27 128.213 143.908 128.15 143.562V143.546C128.103 143.326 128.04 143.011 127.961 142.618C127.741 141.753 127.599 141.108 127.521 140.652C126.875 137.931 125.868 134.36 124.861 133.432C124.861 133.432 125.05 133.259 125.27 132.897C125.144 133.07 125.002 133.243 124.861 133.432C121.556 137.726 110.209 136.027 104.276 133.369C98.3423 130.711 101.443 129.562 105.424 127.455C109.406 125.347 116.268 127.675 118.581 127.014C120.911 126.354 118.125 124.576 113.907 123.963C109.689 123.365 106.683 127.046 99.8374 126.181C92.9914 125.331 90.6936 111.583 90.6936 111.583C95.0059 114.053 103.866 113.345 104.543 111.819C105.22 110.294 92.897 107.714 91.0871 106.817C89.2457 105.936 86.7591 101.359 90.5363 94.1706Z" fill="#CDE0FB"/>
<path opacity="0.5" d="M340.645 231.271L314.268 231.255H300.308C294.894 231.255 290.472 226.819 290.472 221.408L290.503 123.994C290.503 118.583 294.941 114.147 300.355 114.163H312.725H340.676C346.09 114.163 350.512 118.599 350.512 124.01L350.481 221.424C350.497 226.851 346.058 231.271 340.645 231.271Z" fill="#C0D8FB"/>
<path d="M346.232 203.665L345.539 198.537L344.847 193.409C344.674 192.104 343.965 190.987 342.99 190.232C342.014 189.493 340.739 189.115 339.433 189.288C339.291 189.304 339.15 189.335 339.008 189.367C339.48 188.675 339.763 187.888 339.842 187.102C340.739 189.241 343.068 190.484 345.398 189.933C347.963 189.32 349.568 186.709 348.954 184.145L347.742 179.111L346.531 174.078C346.216 172.788 345.413 171.75 344.375 171.105C343.336 170.46 342.03 170.208 340.739 170.523C338.174 171.136 336.568 173.747 337.182 176.311L338.992 183.893C338.725 183.5 338.378 183.138 337.969 182.823C337.135 182.194 336.175 181.88 335.199 181.848C335.671 181.235 335.986 180.511 336.128 179.772C336.301 178.797 336.175 177.758 335.734 176.83C336.285 175.037 335.734 172.992 334.208 171.734L326.229 165.143C324.183 163.46 321.145 163.743 319.461 165.788C317.903 167.676 318.029 170.413 319.682 172.143C319.257 172.143 318.832 172.19 318.407 172.3L313.418 173.669L308.429 175.037C306.698 175.509 305.439 176.893 305.03 178.545L304.51 177.287L302.511 172.505C301.488 170.067 298.671 168.903 296.216 169.925C293.761 170.947 292.612 173.763 293.635 176.217L295.634 180.999L296.909 184.066C295.209 184.742 293.966 186.347 293.871 188.282L293.604 193.457L293.336 198.632C293.273 199.953 293.745 201.18 294.579 202.092C295.398 203.005 296.578 203.602 297.9 203.681C298.467 203.712 299.002 203.634 299.521 203.477C299.018 204.467 298.892 205.631 299.144 206.717C298.262 207.22 297.523 208.022 297.113 209.029L295.099 213.764L293.116 218.546C292.612 219.773 292.659 221.078 293.132 222.226C293.604 223.359 294.501 224.318 295.728 224.822C297.633 225.608 299.773 225.058 301.095 223.626C301.41 224.366 301.913 225.042 302.59 225.561C304.683 227.165 307.721 226.772 309.326 224.664L312.474 220.559L315.621 216.454C316.046 215.903 316.329 215.274 316.471 214.629C317.573 214.739 318.706 214.487 319.666 213.811L320.484 213.245L319.335 214.739L316.188 218.844C314.582 220.937 314.976 223.972 317.085 225.577C319.178 227.181 322.215 226.788 323.821 224.68L326.968 220.575L330.116 216.469C330.163 216.422 330.195 216.359 330.226 216.312C330.478 216.721 330.793 217.083 331.155 217.397L330.037 218.86C328.432 220.952 328.825 223.988 330.934 225.593C333.043 227.197 336.065 226.804 337.67 224.696L343.965 216.469C344.768 215.415 345.067 214.141 344.91 212.914C344.752 211.687 344.123 210.539 343.068 209.737C342.706 209.47 342.329 209.249 341.919 209.092C341.982 209.092 342.03 209.092 342.093 209.076C344.737 208.715 346.594 206.276 346.232 203.665ZM302.921 199.072L303.015 197.31C303.314 197.83 303.723 198.286 304.227 198.663C304.416 198.805 304.605 198.931 304.809 199.041L302.606 200.551C302.779 200.095 302.889 199.607 302.921 199.072ZM335.309 194.699L336.254 201.589C335.845 200.755 335.215 200.079 334.46 199.607C333.531 199.041 332.414 198.773 331.265 198.946C331.753 198.647 332.209 198.254 332.571 197.782L335.278 194.259C335.278 194.4 335.294 194.558 335.309 194.699ZM324.372 176.075L325.583 177.082L324.34 177.947C324.482 177.334 324.497 176.705 324.372 176.075ZM325.426 191.302C325.3 190.547 325.001 189.855 324.576 189.257C324.938 189.115 325.284 188.942 325.615 188.722L329.408 186.111L325.426 191.302ZM328.574 200.299C327.551 199.45 326.244 199.072 324.954 199.214L325.064 197.924C325.3 198.207 325.552 198.459 325.851 198.695C326.921 199.513 328.212 199.811 329.455 199.623C329.124 199.811 328.825 200.032 328.574 200.299ZM318.879 182.116C317.825 183.704 317.777 185.843 318.91 187.511C318.926 187.542 318.958 187.574 318.973 187.605C318.627 187.731 318.297 187.904 317.982 188.124C318.202 187.448 318.265 186.724 318.171 186.017C318.013 184.79 317.384 183.641 316.329 182.839C316.329 182.839 316.314 182.839 316.314 182.823L318.879 182.116ZM314.095 193.661L315.952 191.239C315.92 191.38 315.904 191.538 315.889 191.695L315.543 196.146C314.85 195.517 314 195.124 313.103 194.967L314.095 193.661ZM305.423 213.968L305.974 212.647C306.367 211.687 306.43 210.665 306.21 209.721C306.32 209.658 306.43 209.595 306.54 209.517L315.07 203.634C315.118 203.602 315.181 203.555 315.228 203.508C315.338 203.98 315.527 204.42 315.763 204.829L314.252 205.883C313.229 206.591 312.568 207.629 312.316 208.746C310.711 208.589 309.074 209.234 308.02 210.602L305.423 213.968ZM328.038 208.054L328.306 209.171C327.881 208.982 327.425 208.856 326.968 208.793L328.038 208.054ZM338.19 209.171L337.812 207.629L337.749 207.33C338.268 207.975 338.945 208.463 339.716 208.777C339.181 208.825 338.677 208.95 338.19 209.171ZM309.074 184.428L306.462 187.825L303.314 191.931C303.298 191.947 303.283 191.962 303.267 191.994L303.424 188.738C303.424 188.659 303.424 188.565 303.424 188.486C303.566 188.439 303.723 188.392 303.865 188.329C305.816 187.511 306.95 185.529 306.792 183.515C307.485 184.003 308.256 184.318 309.074 184.428Z" fill="#AFCDFB"/>
<path opacity="0.5" d="M314.268 231.271H300.308C294.894 231.271 290.472 226.835 290.472 221.424L290.503 124.01C290.503 118.599 294.941 114.163 300.355 114.179H312.725C313.748 115.925 314.346 118.017 314.346 120.266L314.299 230.28C314.299 230.61 314.299 230.941 314.268 231.271Z" fill="#AFCDFB"/>
<path d="M349.867 118.772L312.411 118.756H291.149C290.094 118.756 289.229 117.891 289.229 116.837V107.667C289.229 106.613 290.094 105.748 291.149 105.748H312.379L349.867 105.764C350.922 105.764 351.787 106.629 351.787 107.683V116.853C351.787 117.907 350.922 118.772 349.867 118.772Z" fill="#FAED48"/>
<path d="M312.411 118.756H291.149C290.094 118.756 289.229 117.891 289.229 116.837V107.667C289.229 106.613 290.094 105.748 291.149 105.748H312.379C313.434 105.748 314.283 106.613 314.283 107.667V116.837C314.299 117.891 313.449 118.741 312.411 118.756Z" fill="#FFD015"/>
<path d="M169.022 109.759V173.039C169.022 176.925 165.843 180.102 161.955 180.102H124.326C123.319 180.102 122.358 179.882 121.493 179.504C119.006 178.403 117.259 175.918 117.259 173.039V109.759C117.259 105.874 120.438 102.696 124.326 102.696H161.955C165.843 102.712 169.022 105.889 169.022 109.759Z" fill="#FCECDB"/>
<path d="M152.355 126.495C148.373 125.001 146.359 120.565 147.854 116.601C149.349 112.622 153.772 110.608 157.753 112.103C161.735 113.597 163.749 118.033 162.254 121.997C160.759 125.976 156.337 127.99 152.355 126.495Z" fill="#F7E0CB"/>
<path d="M162.254 122.012L147.854 116.601C149.349 112.622 153.772 110.608 157.753 112.103C161.735 113.597 163.749 118.033 162.254 122.012Z" fill="#EFCBAB"/>
<path d="M126.372 125.253C123.082 122.563 122.595 117.734 125.27 114.446C127.961 111.159 132.793 110.671 136.082 113.345C139.371 116.035 139.859 120.864 137.184 124.152C134.508 127.455 129.661 127.942 126.372 125.253Z" fill="#F7E0CB"/>
<path d="M137.184 124.167L125.27 114.446C127.961 111.159 132.793 110.671 136.082 113.345C139.387 116.035 139.875 120.88 137.184 124.167Z" fill="#EFCBAB"/>
<path d="M152.355 173.386C148.373 171.891 146.359 167.455 147.854 163.492C149.349 159.512 153.772 157.499 157.753 158.993C161.735 160.487 163.749 164.923 162.254 168.887C160.759 172.866 156.337 174.88 152.355 173.386Z" fill="#F7E0CB"/>
<path d="M162.254 169.406L147.854 163.995C149.349 160.015 153.772 158.002 157.753 159.496C161.735 161.006 163.749 165.442 162.254 169.406Z" fill="#EFCBAB"/>
<path d="M126.372 172.143C123.082 169.453 122.595 164.624 125.27 161.337C127.961 158.049 132.793 157.561 136.082 160.235C139.371 162.925 139.859 167.754 137.184 171.042C134.508 174.329 129.661 174.833 126.372 172.143Z" fill="#F7E0CB"/>
<path d="M137.184 171.577L125.27 161.856C127.961 158.568 132.793 158.081 136.082 160.755C139.387 163.444 139.875 168.289 137.184 171.577Z" fill="#EFCBAB"/>
<path d="M158.351 150.562C154.511 152.386 149.932 150.75 148.106 146.912C146.28 143.074 147.917 138.497 151.757 136.672C155.597 134.848 160.177 136.484 162.003 140.322C163.828 144.16 162.191 148.753 158.351 150.562Z" fill="#F7E0CB"/>
<path d="M162.003 140.322L148.106 146.913C146.28 143.075 147.917 138.498 151.757 136.673C155.597 134.864 160.193 136.5 162.003 140.322Z" fill="#EFCBAB"/>
<path d="M124.09 140.762C125.664 136.814 130.149 134.911 134.083 136.484C138.018 138.057 139.938 142.539 138.364 146.472C136.79 150.404 132.305 152.323 128.37 150.75C124.436 149.177 122.516 144.71 124.09 140.762Z" fill="#F7E0CB"/>
<path d="M128.37 150.751L134.083 136.484C138.018 138.057 139.938 142.54 138.364 146.472C136.79 150.42 132.321 152.339 128.37 150.751Z" fill="#EFCBAB"/>
<path opacity="0.5" d="M169.022 118.426V173.48C169.022 177.114 166.11 180.102 162.553 180.102H128.134C127.206 180.102 126.34 179.898 125.538 179.536V126.055C125.538 123.868 126.45 121.886 127.914 120.487C128.449 119.967 129.063 119.543 129.74 119.197C130.731 118.709 131.833 118.426 132.997 118.426H169.022Z" fill="#EFCBAB"/>
<path d="M126.765 189.115V125.835C126.765 121.949 129.944 118.772 133.832 118.772H171.461C175.348 118.772 178.527 121.949 178.527 125.835V189.115C178.527 193 175.348 196.178 171.461 196.178H133.832C129.944 196.178 126.765 193 126.765 189.115Z" fill="#FCECDB"/>
<path d="M161.845 142.571C157.863 141.077 155.849 136.641 157.344 132.677C158.839 128.697 163.262 126.684 167.243 128.178C171.225 129.673 173.24 134.108 171.744 138.072C170.265 142.052 165.827 144.065 161.845 142.571Z" fill="#F7E0CB"/>
<path d="M171.76 138.088L157.36 132.677C158.855 128.697 163.277 126.684 167.259 128.178C171.241 129.673 173.24 134.108 171.76 138.088Z" fill="#EFCBAB"/>
<path d="M135.862 141.328C132.572 138.639 132.085 133.81 134.76 130.522C137.451 127.235 142.283 126.747 145.572 129.421C148.861 132.111 149.349 136.94 146.674 140.227C143.998 143.531 139.151 144.018 135.862 141.328Z" fill="#F7E0CB"/>
<path d="M146.689 140.243L134.776 130.522C137.467 127.235 142.299 126.747 145.588 129.421C148.877 132.111 149.365 136.956 146.689 140.243Z" fill="#EFCBAB"/>
<path d="M161.845 189.461C157.863 187.967 155.849 183.531 157.344 179.567C158.839 175.588 163.262 173.574 167.243 175.069C171.225 176.563 173.24 180.999 171.744 184.963C170.265 188.942 165.827 190.956 161.845 189.461Z" fill="#F7E0CB"/>
<path d="M171.76 185.482L157.36 180.071C158.855 176.091 163.277 174.078 167.259 175.572C171.241 177.082 173.24 181.518 171.76 185.482Z" fill="#EFCBAB"/>
<path d="M135.862 188.219C132.572 185.529 132.085 180.7 134.76 177.412C137.451 174.125 142.283 173.637 145.572 176.311C148.861 179.001 149.349 183.83 146.674 187.118C143.998 190.405 139.151 190.908 135.862 188.219Z" fill="#F7E0CB"/>
<path d="M146.689 187.652L134.776 177.931C137.467 174.644 142.299 174.156 145.588 176.83C148.877 179.52 149.365 184.365 146.689 187.652Z" fill="#EFCBAB"/>
<path d="M167.841 166.637C164.001 168.462 159.422 166.826 157.596 162.988C155.77 159.15 157.407 154.573 161.247 152.748C165.087 150.923 169.667 152.559 171.493 156.397C173.318 160.235 171.681 164.829 167.841 166.637Z" fill="#F7E0CB"/>
<path d="M171.51 156.398L157.613 162.989C155.787 159.151 157.424 154.574 161.264 152.749C165.104 150.94 169.684 152.576 171.51 156.398Z" fill="#EFCBAB"/>
<path d="M133.595 156.838C135.169 152.89 139.655 150.986 143.589 152.559C147.524 154.132 149.444 158.615 147.87 162.548C146.296 166.48 141.811 168.399 137.876 166.826C133.926 165.253 132.006 160.786 133.595 156.838Z" fill="#F7E0CB"/>
<path d="M137.876 166.826L143.589 152.559C147.524 154.132 149.444 158.615 147.87 162.548C146.296 166.496 141.811 168.415 137.876 166.826Z" fill="#EFCBAB"/>
<path d="M172.689 144.018H113.592V232.168H172.689V144.018Z" fill="#DDB517"/>
<path d="M180.92 144.018H121.823V232.168H180.92V144.018Z" fill="#FAED48"/>
<path d="M121.823 149.13L118.991 153.535H113.592V144.018H121.823V149.13Z" fill="#CC9B18"/>
<path d="M116.772 150.971H108.541L113.592 144.019H121.823L116.772 150.971Z" fill="#FFD015"/>
<path opacity="0.5" d="M152.308 232.451H121.823V148.045L152.308 150.971V232.451Z" fill="#FFD015"/>
<path d="M180.935 150.971L176.135 153.535H124.672L121.823 149.13V144.018L180.935 150.971Z" fill="#EBC942"/>
<path d="M185.106 150.971H126.01L121.823 144.018H180.935L185.106 150.971Z" fill="#F9EF7B"/>
<path d="M373.962 140.966C373.962 140.966 373.931 140.715 373.647 140.384C373.474 140.023 373.285 139.582 373.27 139.346C373.254 138.874 372.734 138.701 372.514 139.079C372.435 139.205 372.404 139.362 372.404 139.519C371.57 139.142 370.279 138.796 368.296 138.654C368.296 138.654 366.77 138.481 367.761 139.771C368.422 140.636 368.989 140.636 369.949 141.847C370.909 143.058 372.325 143.719 373.411 143.405L374.686 143.562L375.504 141.533L373.962 140.966Z" fill="#F9C29D"/>
<path d="M414.896 127.565C414.896 127.565 413.637 141.329 395.822 147.149C391.006 148.721 373.018 143.892 373.018 143.892C373.018 143.892 373.112 141.517 374.576 140.935C374.576 140.935 391.431 139.897 392.848 140.589C394.107 141.203 404.871 130.129 408.35 128.351C411.828 126.574 414.896 127.565 414.896 127.565Z" fill="#91CECF"/>
<path d="M436.883 222.289C436.883 222.289 439.023 224.24 438.598 225.624C438.173 227.008 436.253 227.921 436.001 229.619C435.734 231.302 434.695 232.231 433.766 232.231C432.838 232.231 429.297 232.231 429.297 232.231C429.297 232.231 428.604 231.035 430.273 230.689C431.941 230.327 432.57 228.345 432.46 226.505C432.35 224.665 432.618 222.211 432.618 222.211L436.159 221.393L436.883 222.289Z" fill="#233862"/>
<path d="M436.883 221.078C436.489 222.227 432.193 223.925 432.193 223.925C432.193 223.925 429.848 220.245 422.356 207.032C421.711 205.899 421.034 204.641 420.342 203.319C412.977 189.194 403.471 165.71 403.471 165.71L421.648 160.645C421.648 160.645 422.498 167.943 422.655 171.624C422.75 173.873 424.04 178.687 425.661 182.902C426.7 185.576 427.88 187.999 428.982 189.367C434.018 195.58 436.883 221.078 436.883 221.078Z" fill="#2B478B"/>
<path d="M425.693 182.886C424.544 188.675 422.451 198.38 420.358 203.303C412.992 189.178 403.487 165.694 403.487 165.694L421.664 160.629C421.664 160.629 422.514 167.927 422.671 171.608C422.781 173.873 424.056 178.686 425.693 182.886Z" fill="#233862"/>
<path d="M410.71 227.323C410.71 227.323 411.088 231.759 410.16 232.215L398.167 232.183C398.167 232.183 398.167 230.799 400.087 230.5C402.007 230.186 405.391 229.069 405.973 226.552C406.555 224.051 410.71 227.323 410.71 227.323Z" fill="#233862"/>
<path d="M400.591 164.781C400.591 164.781 401.22 172.536 401.96 181.88C402.967 194.558 404.179 210.13 404.305 213.072C404.509 218.2 405.344 226.379 405.344 226.379C405.344 226.379 407.327 228.329 411.277 227.512C411.277 227.512 414.802 215.824 415.809 203.445C415.825 203.241 415.841 203.036 415.857 202.832C416.801 190.232 418.249 163.712 418.249 163.712L400.591 164.781Z" fill="#2B478B"/>
<path d="M417.147 122.767C417.147 122.767 406.005 126.165 407.311 124.498C407.138 123.507 406.65 120.833 406.571 120.109C406.367 118.426 406.367 117.466 406.367 117.466L409.687 114.855L412.835 112.354C412.567 119.386 417.147 122.767 417.147 122.767Z" fill="#FFB27D"/>
<path d="M427.204 179.473C418.17 185.576 399.898 183.83 399.757 183.72C399.458 179.835 399.285 173.433 399.19 167.503C399.08 160.141 399.064 153.519 399.08 153.377C399.08 153.377 399.08 153.157 399.096 152.78C399.127 151.584 399.206 148.847 399.285 146.802C399.3 146.425 399.316 146.063 399.332 145.748C399.332 145.733 399.332 145.717 399.332 145.701C399.395 144.789 399.946 142.335 400.732 139.472C401.897 135.288 403.534 130.223 404.809 127.879C405.454 126.668 407.641 123.176 407.641 123.176C409.184 123.475 410.285 123.019 411.906 122.232C413.685 121.383 415.605 120.455 415.904 120.691C418.233 122.39 419.807 126.212 420.641 131.088C421.113 133.872 427.66 179.158 427.204 179.473Z" fill="#ABDDDA"/>
<path d="M412.882 115.044C412.882 115.044 410.71 119.008 406.571 120.109C406.367 118.426 406.367 117.466 406.367 117.466L409.687 114.855L412.882 115.044Z" fill="#ED985F"/>
<path d="M404.84 117.356C404.84 117.356 413.039 118.693 413.811 113.66C414.582 108.626 416.156 105.402 410.962 104.332C405.768 103.262 404.446 105.04 403.77 106.66C403.093 108.28 402.731 116.869 404.84 117.356Z" fill="#FFB27D"/>
<path d="M416.785 103.734C416.864 103.656 417.037 103.577 417.415 103.561C417.415 103.561 417.116 103.373 416.706 103.357C416.628 102.822 416.344 101.894 415.432 101.658C415.432 101.658 415.92 101.925 415.983 102.492C414.928 101.406 412.662 100.62 406.367 101.107C398.088 101.768 400.811 107.053 401.881 107.682C402.951 108.312 405.658 106.581 407.641 106.739C409.64 106.896 410.018 109.775 410.695 110.183C411.371 110.577 411.104 109.885 412.017 109.46C412.929 109.051 413.024 110.561 412.756 111.552C412.489 112.543 413.748 113.849 413.748 113.849C413.748 113.849 413.748 113.849 415.022 112.48C416.297 111.112 417.493 105.307 416.911 104.065C416.895 103.955 416.848 103.844 416.785 103.734Z" fill="#2C3A64"/>
<path d="M399.19 167.503C399.08 160.141 399.064 153.519 399.08 153.377C399.08 153.377 399.08 153.157 399.096 152.78C406.178 144.018 415.321 134.911 415.321 134.911C415.321 134.911 417.289 160.613 399.19 167.503Z" fill="#91CECF"/>
<path d="M408.806 133.401C408.712 133.558 406.461 146.802 400.701 146.944C400.134 146.96 399.662 146.897 399.269 146.787C399.285 146.409 399.3 146.047 399.316 145.733C399.316 145.717 399.316 145.701 399.316 145.685C399.379 144.773 399.93 142.319 400.717 139.457C403.093 138.969 405.847 136.814 408.806 133.401Z" fill="#91CECF"/>
<path d="M415.92 120.675C415.92 120.675 415.243 118.693 414.676 118.473C414.676 118.473 406.933 120.251 404.352 128.808C404.368 128.792 407.374 123.554 415.92 120.675Z" fill="#6BB7BF"/>
<path d="M400.449 184.664L385.042 186.803L376.889 187.936C373.726 188.376 370.783 186.143 370.342 182.981L362.426 126.055C361.985 122.893 364.22 119.952 367.384 119.511L374.607 118.505L390.943 116.24C394.107 115.799 397.05 118.033 397.49 121.195L405.407 178.12C405.847 181.282 403.612 184.224 400.449 184.664Z" fill="#FAED48"/>
<path d="M401.472 168.069L400.638 165.128L399.804 162.186C399.599 161.431 399.096 160.833 398.466 160.487C397.837 160.126 397.065 160.016 396.31 160.22C396.231 160.236 396.153 160.267 396.074 160.299C396.294 159.858 396.389 159.371 396.373 158.899C397.065 160.078 398.529 160.613 399.851 160.094C401.299 159.528 402.023 157.876 401.456 156.429L400.339 153.582L399.222 150.735C398.938 150.011 398.387 149.461 397.711 149.178C397.05 148.895 396.263 148.847 395.539 149.131C394.091 149.697 393.367 151.348 393.934 152.796L395.618 157.074C395.429 156.87 395.193 156.681 394.941 156.539C394.406 156.24 393.808 156.13 393.241 156.193C393.477 155.8 393.587 155.344 393.619 154.903C393.65 154.321 393.493 153.724 393.147 153.22C393.32 152.119 392.832 150.971 391.84 150.357L386.631 147.149C385.309 146.331 383.546 146.74 382.728 148.077C381.973 149.304 382.272 150.892 383.373 151.773C383.121 151.805 382.885 151.868 382.634 151.978L379.832 153.189L377.031 154.4C376.055 154.825 375.426 155.737 375.331 156.728L374.922 156.036L373.364 153.409C372.577 152.072 370.83 151.616 369.477 152.418C368.123 153.22 367.682 154.951 368.485 156.303L370.043 158.93L371.035 160.613C370.106 161.148 369.508 162.186 369.602 163.319L369.87 166.355L370.138 169.39C370.201 170.161 370.594 170.838 371.145 171.31C371.696 171.781 372.435 172.033 373.207 171.97C373.537 171.939 373.852 171.844 374.135 171.718C373.93 172.348 373.946 173.024 374.182 173.653C373.71 174.031 373.348 174.55 373.175 175.163L372.404 178.12L371.633 181.078C371.444 181.833 371.57 182.603 371.932 183.217C372.294 183.846 372.907 184.334 373.663 184.523C374.843 184.821 376.039 184.334 376.7 183.39C376.936 183.799 377.283 184.145 377.723 184.397C379.077 185.167 380.824 184.68 381.595 183.327L383.106 180.669L384.617 178.01C384.821 177.649 384.931 177.255 384.963 176.878C385.608 176.846 386.253 176.61 386.773 176.139L387.213 175.745L386.663 176.705L385.152 179.363C384.381 180.716 384.868 182.462 386.222 183.233C387.575 184.003 389.322 183.516 390.093 182.163L391.604 179.505L393.115 176.846C393.131 176.815 393.147 176.783 393.162 176.736C393.351 176.956 393.556 177.145 393.792 177.287L393.257 178.231C392.486 179.583 392.974 181.329 394.327 182.1C395.68 182.871 397.427 182.383 398.199 181.031L401.205 175.714C401.582 175.037 401.661 174.267 401.472 173.559C401.283 172.867 400.811 172.238 400.134 171.844C399.898 171.718 399.662 171.624 399.41 171.561C399.442 171.545 399.473 171.545 399.505 171.545C401 171.152 401.881 169.579 401.472 168.069ZM375.788 168.919L375.693 167.88C375.913 168.148 376.181 168.399 376.512 168.573C376.637 168.635 376.763 168.698 376.889 168.746L375.725 169.815C375.788 169.532 375.819 169.233 375.788 168.919ZM394.358 163.728L395.476 167.676C395.177 167.22 394.752 166.874 394.264 166.669C393.682 166.418 393.005 166.355 392.344 166.543C392.612 166.323 392.832 166.072 393.021 165.757L394.311 163.476C394.311 163.555 394.327 163.649 394.358 163.728ZM386.442 153.739L387.229 154.227L386.568 154.825C386.6 154.463 386.568 154.085 386.442 153.739ZM388.299 162.548C388.173 162.123 387.937 161.746 387.638 161.431C387.843 161.321 388.032 161.195 388.205 161.038L390.204 159.198L388.299 162.548ZM390.865 167.55C390.204 167.141 389.401 167.015 388.661 167.204L388.614 166.433C388.771 166.575 388.945 166.701 389.133 166.811C389.826 167.204 390.613 167.267 391.321 167.062C391.148 167.22 391.006 167.377 390.865 167.55ZM383.735 157.703C383.247 158.726 383.389 159.968 384.192 160.849C384.207 160.865 384.223 160.881 384.239 160.896C384.05 161.007 383.861 161.132 383.704 161.274C383.783 160.849 383.751 160.425 383.641 160.031C383.452 159.339 382.98 158.71 382.303 158.317C382.303 158.317 382.303 158.317 382.287 158.317L383.735 157.703ZM381.878 164.845L382.76 163.272C382.76 163.366 382.76 163.445 382.76 163.539L382.917 166.166C382.461 165.851 381.925 165.694 381.39 165.678L381.878 164.845ZM378.463 177.413L378.668 176.595C378.825 175.997 378.778 175.399 378.557 174.864C378.62 174.817 378.668 174.77 378.731 174.723L383.232 170.602C383.263 170.57 383.279 170.539 383.31 170.523C383.421 170.79 383.562 171.026 383.735 171.247L382.933 171.986C382.398 172.474 382.099 173.134 382.036 173.826C381.091 173.873 380.178 174.377 379.675 175.258L378.463 177.413ZM391.195 172.112L391.447 172.741C391.179 172.662 390.912 172.631 390.644 172.631L391.195 172.112ZM397.207 171.954L396.861 171.074L396.798 170.901C397.16 171.231 397.585 171.467 398.057 171.577C397.774 171.656 397.475 171.781 397.207 171.954ZM378.18 159.858L376.936 162.06L375.426 164.719C375.426 164.734 375.41 164.75 375.41 164.75L375.237 162.831C375.237 162.784 375.221 162.737 375.221 162.69C375.3 162.658 375.378 162.611 375.473 162.564C376.543 161.935 377.047 160.676 376.795 159.512C377.22 159.748 377.692 159.858 378.18 159.858Z" fill="#EB9342"/>
<path d="M396.672 118.174L374.78 121.21L362.363 122.94C361.749 123.035 361.167 122.594 361.088 121.981L360.349 116.617C360.27 116.004 360.695 115.422 361.309 115.343L373.71 113.613L395.618 110.561C396.231 110.482 396.814 110.907 396.892 111.521L397.632 116.884C397.726 117.514 397.286 118.096 396.672 118.174Z" fill="#ABDDDA"/>
<path d="M381.973 151.427C381.973 151.427 381.878 151.191 381.516 150.955C381.249 150.656 380.95 150.294 380.871 150.059C380.729 149.618 380.178 149.587 380.068 150.011C380.037 150.153 380.037 150.31 380.084 150.468C379.171 150.326 377.849 150.357 375.898 150.766C375.898 150.766 374.387 151.018 375.693 151.993C376.559 152.638 377.125 152.497 378.369 153.378C379.612 154.274 381.17 154.51 382.13 153.912L383.389 153.708L383.625 151.537L381.973 151.427Z" fill="#F9C29D"/>
<path d="M417.635 127.282C417.635 127.282 420.232 140.856 404.698 151.348C400.512 154.179 381.878 154.494 381.878 154.494C381.878 154.494 381.327 152.182 382.571 151.222C382.571 151.222 398.498 145.591 400.056 145.858C401.441 146.11 408.727 132.488 411.592 129.814C414.409 127.156 417.635 127.282 417.635 127.282Z" fill="#ABDDDA"/>
<path d="M82.3054 149.807C81.1407 146.047 76.0416 145.34 73.9957 148.706C73.6337 149.303 73.3976 150.011 73.3662 150.798C73.256 155.202 81.9434 172.253 83.0923 173.763C85.1854 176.516 97.8703 183.107 97.8703 183.107L100.561 182.713C100.561 182.713 99.0349 181.754 97.4611 180.181C94.2033 176.925 89.4504 171.64 88.5848 170.916C87.1212 169.658 84.5244 156.932 82.3054 149.807Z" fill="#ED985F"/>
<path d="M157.753 231.9H99.8217C96.265 231.9 93.3534 228.99 93.3534 225.435V191.019C93.3534 187.464 96.265 184.554 99.8217 184.554H157.753C161.31 184.554 164.222 187.464 164.222 191.019V225.435C164.222 229.006 161.31 231.9 157.753 231.9Z" fill="#FCECDB"/>
<path d="M115.135 199.812C113.766 203.445 109.705 205.286 106.07 203.917C102.434 202.549 100.593 198.49 101.962 194.857C103.331 191.223 107.392 189.383 111.027 190.751C114.663 192.12 116.504 196.178 115.135 199.812Z" fill="#F7E0CB"/>
<path d="M111.027 190.751L106.085 203.917C102.45 202.549 100.609 198.49 101.978 194.857C103.331 191.223 107.392 189.383 111.027 190.751Z" fill="#EFCBAB"/>
<path d="M115.164 221.502C116.472 217.845 114.566 213.822 110.908 212.515C107.249 211.207 103.224 213.112 101.916 216.768C100.608 220.425 102.514 224.449 106.172 225.756C109.83 227.063 113.856 225.158 115.164 221.502Z" fill="#F7E0CB"/>
<path d="M113.01 213.685L104.102 224.586C101.096 222.132 100.64 217.696 103.095 214.692C105.566 211.672 109.988 211.231 113.01 213.685Z" fill="#EFCBAB"/>
<path d="M158.068 199.812C156.699 203.445 152.638 205.286 149.003 203.917C145.367 202.549 143.526 198.49 144.895 194.857C146.265 191.223 150.325 189.383 153.96 190.751C157.596 192.12 159.437 196.178 158.068 199.812Z" fill="#F7E0CB"/>
<path d="M153.96 190.751L149.019 203.917C145.383 202.549 143.542 198.49 144.911 194.857C146.265 191.223 150.325 189.383 153.96 190.751Z" fill="#EFCBAB"/>
<path d="M156.935 223.579C154.558 226.489 150.341 227.008 147.35 224.822C147.24 224.743 147.146 224.665 147.036 224.586C144.03 222.132 143.573 217.696 146.028 214.692C148.484 211.688 152.922 211.231 155.928 213.685C156.038 213.764 156.132 213.858 156.227 213.937C158.965 216.438 159.311 220.669 156.935 223.579Z" fill="#F7E0CB"/>
<path d="M156.227 213.937L147.335 224.822C147.225 224.743 147.13 224.665 147.02 224.586C144.014 222.132 143.558 217.696 146.013 214.692C148.468 211.688 152.906 211.231 155.912 213.685C156.038 213.764 156.132 213.858 156.227 213.937Z" fill="#EFCBAB"/>
<path d="M137.184 194.322C138.852 197.83 137.357 202.029 133.832 203.697C130.322 205.364 126.12 203.87 124.452 200.346C122.783 196.839 124.279 192.639 127.804 190.971C131.313 189.32 135.516 190.814 137.184 194.322Z" fill="#F7E0CB"/>
<path d="M127.804 190.987L133.832 203.697C130.322 205.364 126.12 203.87 124.452 200.346C122.799 196.839 124.294 192.654 127.804 190.987Z" fill="#EFCBAB"/>
<path d="M128.197 225.656C124.593 224.208 122.831 220.119 124.279 216.517C125.726 212.915 129.818 211.153 133.422 212.6C137.026 214.047 138.789 218.137 137.341 221.739C135.909 225.357 131.817 227.103 128.197 225.656Z" fill="#F7E0CB"/>
<path d="M137.357 221.739L124.294 216.517C125.742 212.915 129.834 211.153 133.438 212.6C137.042 214.047 138.789 218.137 137.357 221.739Z" fill="#EFCBAB"/>
<path d="M85.988 128.241C86.051 127.958 79.8345 131.057 79.5197 131.403C76.6082 134.643 77.4265 138.859 79.1105 138.906C80.1807 138.937 79.9761 140.715 79.9761 140.715L91.9055 135.666C91.9055 135.666 90.4576 127.297 85.988 128.241Z" fill="#2B478B"/>
<path d="M87.4516 128.902C87.4516 128.902 87.8766 124.262 82.683 124.262C82.683 124.262 84.2568 124.686 85.0752 125.536C85.0752 125.536 81.7702 123.585 78.1662 126.574C74.5622 129.563 76.797 137.05 75.7111 138.466C74.6094 139.881 70.3444 140.164 70.8638 144.773C71.3831 149.366 84.4142 155.123 83.5643 158.93C83.5643 158.93 88.6635 151.427 85.0122 148.014C85.0122 148.014 86.7906 149.681 86.9795 151.679C86.9795 151.679 87.4674 147.793 84.9808 146.551C82.7932 145.45 80.999 141.423 81.1879 140.715C81.3925 139.991 87.4516 128.902 87.4516 128.902Z" fill="#2B478B"/>
<path d="M72.8783 229.32L70.2972 228.943C70.2972 228.943 61.6256 222.053 60.3193 209.186C60.1934 207.881 59.2019 203.272 58.2576 201.762C57.3291 200.268 55.7553 197.436 54.0241 194.275C50.8923 188.565 47.2568 181.738 45.9977 179.567C42.016 172.63 43.936 167.974 43.936 167.974C43.936 167.974 55.0471 166.873 58.0845 164.215L59.1862 165.898C59.1862 165.898 61.5941 176.547 61.4839 176.594C61.6098 176.956 61.72 177.318 61.8459 177.695C63.7502 183.563 65.9378 190.877 67.1181 196.839C67.7949 200.189 67.968 206.843 68.1411 208.148C69.227 215.809 72.8783 229.32 72.8783 229.32Z" fill="#2B478B"/>
<path d="M78.2921 232.592H67.5273C67.5273 232.592 67.2755 230.956 67.8263 229.714C68.3614 228.518 69.1326 228.487 67.9207 226.615C68.5975 227.323 70.8008 227.606 72.3589 227.401C72.5477 227.716 73.5864 229.777 74.2317 230.249C74.9399 230.72 78.0718 230.547 78.2921 232.592Z" fill="#233862"/>
<path d="M54.0241 194.275C50.8922 188.565 47.2568 181.738 45.9977 179.567C42.016 172.63 43.936 167.974 43.936 167.974C43.936 167.974 49.3184 166.197 52.3716 163.539C52.3716 163.539 54.8582 185.199 54.0241 194.275Z" fill="#233862"/>
<path d="M54.2916 168.777L54.3231 166.763C50.3099 167.267 40.4894 161.966 40.4894 161.966C40.4894 161.966 36.2874 164.75 35.7208 172.725C35.4375 176.61 33.6591 193.063 33.4703 197.987C33.3916 199.764 31.6447 204.137 31.0151 205.301C24.8931 216.689 28.0879 232.167 28.0879 232.167L29.5043 231.806C29.5043 231.806 34.6821 215.761 38.0658 208.825C38.6323 207.645 42.2049 202.029 43.5426 198.883C46.0449 192.922 48.4686 185.041 50.1998 178.938C50.3257 178.954 54.2916 168.777 54.2916 168.777Z" fill="#2B478B"/>
<path d="M77.7728 155.344C71.21 153.834 75.3963 144.632 75.7898 144.789C76.7026 144.6 78.7013 143.012 80.4797 139.897L80.7158 140.102L84.7447 143.625C84.7447 143.625 83.8162 144.993 83.0293 146.346C82.4155 147.4 81.8961 148.438 81.9748 148.8C82.3053 149.052 79.5197 155.737 77.7728 155.344Z" fill="#FFB27D"/>
<path d="M81.9119 148.501C81.9119 148.501 83.0607 150.782 83.6745 152.748C84.2883 154.714 85.8306 160.99 85.8306 160.99C85.8306 160.99 82.6515 164.608 78.2449 164.404C78.2449 164.404 75.8685 160.691 76.7026 157.325C77.5367 153.959 81.9119 148.501 81.9119 148.501Z" fill="#91CECF"/>
<path d="M84.7447 143.625C84.7447 143.625 83.8161 144.993 83.0292 146.346C80.5269 144.805 80.5269 141.706 80.7158 140.101L84.7447 143.625Z" fill="#ED985F"/>
<path d="M84.8549 145.402C84.8549 145.402 78.78 142.021 80.9361 138.261C83.1079 134.502 83.7689 131.544 87.7507 133.542C91.7324 135.54 91.6537 137.412 91.2287 138.827C90.8196 140.259 86.4916 146.173 84.8549 145.402Z" fill="#FFB27D"/>
<path d="M92.2674 136.641C91.9841 134.974 91.1343 134.816 90.552 134.926C88.3015 131.214 84.6345 132.661 84.6345 132.661C82.6673 135.115 79.8344 135.54 79.8344 135.54C79.8344 135.54 80.5426 136.845 83.4542 137.663C84.3355 137.915 85.3585 137.758 86.3185 137.427C84.304 138.544 82.1951 138.985 82.1951 138.985C86.0352 139.331 89.6707 135.839 90.0484 135.461C90.2215 136.012 90.5363 137.144 90.3474 137.978C90.0956 139.11 89.0884 141.155 89.7021 141.423C89.7021 141.423 92.6766 139.142 92.2674 136.641Z" fill="#2B478B"/>
<path d="M36.6651 232.592H25.9003C25.9003 232.592 25.6485 230.956 26.1993 229.714C26.7344 228.518 27.5842 227.983 27.3796 226.536C28.0564 227.244 29.1738 228.031 30.7318 227.826C30.9207 228.141 31.9594 229.792 32.6047 230.248C33.2971 230.72 36.4447 230.547 36.6651 232.592Z" fill="#233862"/>
<path d="M78.5439 162.642C77.159 163.13 75.2074 163.397 73.2245 163.602C70.3916 163.916 67.4643 164.121 65.9378 164.734C65.6387 164.86 64.7732 165.222 63.8918 165.851C63.8918 165.851 63.8761 165.867 63.8289 165.898C63.5456 166.103 63.2466 166.355 62.979 166.622C62.5698 167.047 62.2236 167.534 61.9875 168.085C61.421 169.469 62.1764 173.323 62.6485 175.415C62.8374 176.264 62.4439 177.129 61.6728 177.538C60.6026 178.089 59.5324 178.608 58.4937 179.08C58.4307 179.111 58.3835 179.127 58.3363 179.159C58.352 178.938 58.352 178.734 58.352 178.529C58.352 177.082 58.1632 175.871 58.1632 175.871C57.9114 177.334 56.9356 178.923 56.0386 180.134C41.5911 185.922 31.4873 183.406 31.6604 180.527C32.227 170.507 38.9943 161.982 38.9943 161.982C51.6162 147.306 77.1432 143.452 77.1432 143.452C77.1432 143.452 78.3708 143.311 79.8344 145.072C81.9591 147.62 82.0535 148.281 82.0535 148.281C82.0535 148.281 82.62 161.227 78.5439 162.642Z" fill="#ABDDDA"/>
<path d="M73.2245 163.602C70.3916 163.916 67.4643 164.121 65.9378 164.734C65.3082 155.391 69.7306 148.36 69.7306 148.36C69.7306 148.36 72.6107 160.062 73.2245 163.602Z" fill="#91CECF"/>
<path d="M76.199 146.551C76.199 146.551 69.1011 147.259 68.5346 151.867C67.968 156.476 75.3334 175.242 76.3878 176.956C78.3079 180.055 89.6235 190.657 89.6235 190.657L91.7166 189.399C91.7166 189.399 83.6903 175.808 82.447 174.55C80.4954 172.536 78.6069 148.155 76.199 146.551Z" fill="#FFB27D"/>
<path d="M79.8344 155.359C79.8344 155.359 80.5584 143.484 71.4618 146.346C62.3652 149.225 72.8782 169.658 72.8782 169.658C72.8782 169.658 78.2134 169.39 80.1177 164.734L79.8344 155.359Z" fill="#ABDDDA"/>
<path d="M62.6643 175.43C62.8531 176.28 62.4597 177.145 61.6885 177.554C60.6183 178.105 59.5482 178.624 58.5094 179.095C58.4465 178.922 58.3993 178.734 58.3521 178.529C58.1947 177.79 58.116 176.925 58.1632 175.871C58.3993 171.435 61.421 168.069 62.979 166.622C62.5698 167.047 62.2236 167.534 61.9875 168.085C61.4367 169.485 62.1921 173.323 62.6643 175.43Z" fill="#91CECF"/>
<path d="M77.1432 143.452C77.1432 143.452 78.2606 142.052 79.0003 142.099C79.0003 142.099 82.0377 146.346 82.0692 148.297C82.0535 148.281 78.2764 143.247 77.1432 143.452Z" fill="#91CECF"/>
<path d="M106.274 184.569C106.274 184.569 104.653 184.601 104.307 184.554C103.961 184.506 103.504 184.349 103.048 184.333C102.592 184.318 102.182 184.459 101.757 184.554C101.695 184.569 101.632 184.569 101.569 184.569H98.8932C98.8932 184.569 98.6256 184.443 98.3266 183.972C98.2007 183.767 98.185 183.279 97.8859 183.122C96.2649 182.21 100.577 182.729 100.577 182.729C100.577 182.729 103.284 182.682 103.536 182.87C103.992 183.185 106.369 184.443 106.274 184.569Z" fill="#ED985F"/>
<path d="M98.8932 184.569C98.8932 184.569 100.53 185.041 100.986 185.356L101.458 185.655C101.458 185.655 101.726 185.356 101.301 185.01C101.081 184.837 100.451 184.302 100.435 183.704C100.404 183.107 98.5469 183.626 98.8932 184.569Z" fill="#ED985F"/>
<path d="M91.7167 189.383C91.7167 189.383 92.897 190.421 93.7783 190.641C94.6754 190.861 95.6826 193.425 95.8558 193.787C96.0131 194.149 95.0059 193.63 94.5967 193C94.1875 192.371 93.92 192.135 93.7941 192.277C93.6682 192.418 93.8728 194.117 94.5495 195.061C95.2262 196.005 95.6354 196.854 95.1475 196.791C94.6597 196.744 91.7639 196.036 91.1658 194.275C90.5678 192.513 91.0084 192.45 89.6392 190.641C88.27 188.832 91.7167 189.383 91.7167 189.383Z" fill="#FFB27D"/>
<path d="M215.024 104.537C215.008 104.222 214.772 100.84 209.626 100.667C209.626 100.667 212.16 100.966 212.6 102.083C212.6 102.083 210.869 100.714 209.468 101.155C208.068 101.595 207.234 104.049 207.234 104.867C207.218 105.669 208.005 108.28 208.902 108.501C209.232 108.579 209.626 108.563 209.988 108.501C209.752 108.878 209.516 109.271 209.295 109.727C207.234 113.943 209.358 118.064 211.105 117.608C212.223 117.309 212.537 119.212 212.537 119.212L223.381 110.435C223.349 110.467 219.368 102.224 215.024 104.537Z" fill="#2C3A64"/>
<path d="M233.579 149.303C233.485 149.539 233.012 150.625 232.273 151.741C231.675 152.638 230.888 153.55 229.959 154.022C229.251 153.676 227.945 153.173 227.41 152.827C225.427 151.616 222.61 148.187 220.296 144.521C219.95 143.955 219.604 143.389 219.289 142.823C219.226 142.713 219.163 142.618 219.116 142.508C218.297 141.045 217.636 139.598 217.243 138.261L221.429 129.311C221.445 129.327 222.735 130.082 223.869 133.338C225.553 138.182 228.291 145.072 230.195 147.18C230.636 147.667 231.942 148.407 233.5 149.209C233.532 149.288 233.563 149.303 233.579 149.303Z" fill="#ABDDDA"/>
<path d="M232.273 151.742C231.675 152.638 230.888 153.551 229.959 154.023C229.251 153.677 227.945 153.173 227.41 152.827C225.427 151.616 222.61 148.187 220.296 144.522C220.375 143.374 226.434 149.304 227.205 150.373C227.787 151.191 230.778 151.584 232.273 151.742Z" fill="#91CECF"/>
<path d="M242.392 222.274L241.542 230.092C241.369 231.633 239.969 232.766 238.426 232.593L230.604 231.743C229.062 231.57 227.929 230.17 228.102 228.629L228.952 220.811C229.109 219.395 230.305 218.326 231.69 218.294C231.816 218.294 231.942 218.294 232.068 218.31L239.89 219.159C241.432 219.317 242.565 220.717 242.392 222.274Z" fill="#2B478B"/>
<path d="M238.001 222.038C232.477 222.352 231.344 231.806 230.62 231.727C229.078 231.554 227.945 230.154 228.118 228.613L228.968 220.795C229.125 219.379 230.321 218.31 231.706 218.278C236.569 220.072 240.771 221.896 238.001 222.038Z" fill="#233862"/>
<path d="M262.395 126.637L251.867 186.001L245.918 219.49C245.571 221.424 243.793 222.761 241.841 222.541L232.241 221.503L230.069 221.267C227.347 220.968 225.317 218.609 225.458 215.872L227 183.311L229.849 123.114L249.915 125.284L262.395 126.637Z" fill="#F7E0CB"/>
<path opacity="0.5" d="M249.915 125.284L239.685 183.689L233.453 219.238C233.296 220.135 232.855 220.921 232.241 221.487L230.069 221.251C227.347 220.953 225.317 218.593 225.458 215.856L227 183.296L229.849 123.098L249.915 125.284Z" fill="#EFCBAB"/>
<path d="M262.836 122.579L262.395 126.637L249.915 125.284L229.849 123.113L230.274 119.071L250.466 121.242L262.836 122.579Z" fill="#F0E771"/>
<path d="M251.851 185.985L245.87 219.694C245.556 221.503 243.887 222.762 242.046 222.557L233.012 221.582L229.251 221.173C226.985 220.921 225.316 218.971 225.411 216.69L226.985 183.296L239.843 184.68L251.851 185.985Z" fill="#FAED48"/>
<path d="M239.858 184.696L233.579 220.103C233.485 220.638 233.296 221.141 233.012 221.582L229.251 221.173C226.985 220.921 225.316 218.971 225.411 216.69L226.985 183.296L239.858 184.696Z" fill="#FFD015"/>
<path d="M250.466 121.242L249.915 125.284L229.849 123.113L230.274 119.071L250.466 121.242Z" fill="#FFD015"/>
<path d="M218.801 228.739L216.503 229.588C216.503 229.588 206.51 215.73 205.266 203.524C205.046 201.353 205.502 196.729 205.329 195.738C205.251 195.282 205.156 194.731 205.046 194.086C204.715 192.23 204.275 189.682 203.755 186.772C202.575 180.102 201.049 171.561 199.868 165.285L200.482 165.08L207.186 162.91L208.571 158.505L213.576 157.184C213.576 157.184 214.693 159.371 215.685 169.674C215.874 171.026 216.031 172.521 216.157 174.141C216.55 179.08 216.582 185.199 215.685 192.198C215.449 193.992 214.505 201.039 214.615 203.209C215.134 213.245 218.801 228.739 218.801 228.739Z" fill="#2B478B"/>
<path d="M216.173 174.188L205.313 195.753C205.235 195.297 205.14 194.747 205.03 194.102C204.7 192.246 204.259 189.698 203.74 186.788C202.559 180.118 201.033 171.577 199.852 165.301L200.466 165.096L207.171 162.926L208.556 158.521L213.56 157.2C213.56 157.2 214.678 159.386 215.669 169.689C215.889 171.089 216.047 172.584 216.173 174.188Z" fill="#233862"/>
<path d="M211.404 160L211.152 157.845C206.95 158.962 195.698 154.73 195.698 154.73C195.698 154.73 191.621 158.317 192.157 166.905C192.424 171.089 192.896 188.911 193.4 194.18C193.573 196.084 192.345 201.007 191.842 202.328C186.947 215.353 192.597 231.413 192.597 231.413L194.061 230.815C194.061 230.815 203.331 197.216 204.291 193.661C206.1 186.929 207.548 178.183 208.524 171.42C208.65 171.435 211.404 160 211.404 160Z" fill="#2B478B"/>
<path d="M214.599 135.021C207.359 135.414 208.949 124.639 209.39 124.686C210.271 124.23 211.861 121.981 212.789 118.221L213.104 118.363L218.329 120.817C218.329 120.817 217.778 122.516 217.369 124.136C217.054 125.41 216.818 126.637 217.007 126.983C217.416 127.156 217.668 127.25 217.668 127.25C217.715 127.407 216.535 134.911 214.599 135.021Z" fill="#FFB27D"/>
<path d="M218.313 120.833C218.313 120.833 217.762 122.532 217.353 124.152C214.3 123.302 213.371 120.094 213.088 118.379L218.313 120.833Z" fill="#ED985F"/>
<path d="M218.958 122.626C218.958 122.626 211.656 120.943 212.773 116.413C213.891 111.882 213.702 108.611 218.423 109.507C223.129 110.388 223.601 112.339 223.601 113.943C223.601 115.547 220.894 122.94 218.958 122.626Z" fill="#FFB27D"/>
<path d="M224.01 111.363C223.223 109.727 222.295 109.806 221.728 110.105C218.297 106.927 214.929 109.523 214.929 109.523C213.639 112.653 210.822 113.927 210.822 113.927C210.822 113.927 211.939 115.075 215.197 115.044C216.188 115.044 217.196 114.588 218.093 113.959C216.346 115.72 214.284 116.79 214.284 116.79C218.36 116.019 221.083 111.3 221.366 110.797C221.713 111.3 222.374 112.386 222.421 113.298C222.499 114.541 222.074 116.947 222.783 117.042C222.798 117.073 225.191 113.833 224.01 111.363Z" fill="#2C3A64"/>
<path d="M201.111 232.608H189.513C189.513 232.608 189.229 230.846 189.843 229.509C190.425 228.219 191.338 227.637 191.118 226.08C191.858 226.835 193.054 227.685 194.738 227.464C194.942 227.795 196.06 229.572 196.752 230.076C197.492 230.595 200.875 230.406 201.111 232.608Z" fill="#233862"/>
<path d="M226.009 232.608H214.41C214.41 232.608 213.969 230.752 214.741 229.509C215.417 228.393 215.15 227.763 214.662 226.835C215.181 227.055 215.874 227.244 216.613 227.197C217.196 227.166 217.809 226.898 218.345 226.584C218.848 227.15 220.973 229.572 221.65 230.06C222.389 230.595 225.773 230.406 226.009 232.608Z" fill="#233862"/>
<path d="M221.429 129.327L219.525 154.84L218.36 170.46C216.566 171.01 214.866 171.451 213.261 171.781C213.151 170.476 212.726 168.903 212.726 168.903C212.742 169.721 211.782 171.293 211.215 172.159C196.374 174.534 189.402 168.069 189.402 168.069C189.985 162.343 192.487 150.75 195.477 141.029C196.107 139.016 196.752 137.066 197.397 135.272C198.877 131.198 199.821 129.075 200.624 127.439C202.15 124.309 208.949 124.513 208.949 124.513C210.255 129.232 213.859 132.174 213.859 132.174C215.779 131.041 217.211 127.077 217.211 127.077L221.429 129.327Z" fill="#ABDDDA"/>
<path d="M233.343 156.051C232.383 156.051 230.872 155.989 229.991 155.642C229.991 155.642 232.792 155.595 232.194 154.714C232.084 154.557 230.699 154.683 229.141 154.683C228.511 154.683 226.938 155.548 227.016 155.595C225.899 155.454 224.876 155.233 224.545 155.155C224.451 155.139 224.419 155.123 224.419 155.123L223.428 158.018C223.428 158.018 223.633 158.065 224.01 158.143C224.939 158.364 226.827 158.851 228.621 159.559C231.124 160.55 232.981 159.323 233.815 158.442C234.35 157.892 234.759 157.153 234.728 156.618C234.696 156.036 233.925 156.067 233.343 156.051Z" fill="#FFB27D"/>
<path d="M210.46 123.648C210.46 123.648 209.232 123.727 208.965 124.513C208.965 124.513 210.57 130.994 213.875 132.174L210.46 123.648Z" fill="#6BB7BF"/>
<path d="M213.875 132.19C213.875 132.19 216.96 127.062 216.944 126.307C216.944 126.307 218.219 126.794 218.14 127.596C218.14 127.581 215.48 131.828 213.875 132.19Z" fill="#6BB7BF"/>
<path d="M205.424 129.877C205.518 130.192 216.629 147.919 216.865 151.458C217.101 154.998 212.191 153 212.112 152.528C212.034 152.072 205.424 129.877 205.424 129.877Z" fill="#91CECF"/>
<path d="M219.525 154.856L218.36 170.476C202.465 165.898 201.584 132.363 201.584 132.363L211.404 150.09L219.431 154.73C219.446 154.73 219.478 154.777 219.525 154.856Z" fill="#91CECF"/>
<path d="M226.607 156.287L225.993 158.521C225.993 158.521 225.222 158.379 224.01 158.159C223.648 158.096 223.428 158.033 223.428 158.033C222.452 157.845 221.288 157.577 220.013 157.31H219.997C217.825 156.791 215.386 156.162 213.324 155.469C213.135 155.407 212.962 155.344 212.789 155.281C211.577 154.825 213.922 148.659 214.992 149.429C215.276 149.634 215.575 149.838 215.889 150.058C217.652 151.254 219.903 152.591 221.886 153.708C222.861 154.258 223.79 154.777 224.545 155.186C225.789 155.847 226.607 156.287 226.607 156.287Z" fill="#FFB27D"/>
<path d="M215.874 150.027C215.874 150.027 216 154.243 212.065 156.288C207.501 154.636 205.062 147.841 203.189 143.185C202.921 142.54 202.685 141.895 202.433 141.266C201.568 138.938 200.86 136.641 200.45 134.643C200.183 133.464 200.01 132.378 199.978 131.497C199.963 131.183 199.947 130.884 199.963 130.617C199.994 125.567 203.567 125.048 204.039 125.615C204.637 126.322 205.251 127.502 205.896 128.902C206.887 131.151 207.926 134.061 208.902 136.94C209.437 138.529 209.972 140.117 210.491 141.565C210.79 142.445 211.089 143.295 211.357 144.05C211.892 145.513 212.38 146.692 212.821 147.447C213.104 147.935 213.906 148.611 214.961 149.382C215.26 149.602 215.559 149.823 215.874 150.027Z" fill="#ABDDDA"/>
<path d="M233.595 149.288C233.595 149.304 233.579 149.32 233.579 149.32C233.579 149.288 233.595 149.288 233.595 149.288C233.611 149.241 233.611 149.241 233.595 149.288Z" fill="#ABDDDA"/>
<path d="M124.688 228.125C124.688 229.242 124.231 230.249 123.492 230.988C122.752 231.727 121.745 232.184 120.627 232.184H101.537C99.3181 232.184 97.4925 230.359 97.4925 228.141C97.4925 227.024 97.9489 226.018 98.6728 225.278C99.4125 224.539 100.42 224.099 101.537 224.099H120.643C122.878 224.083 124.688 225.907 124.688 228.125Z" fill="#2B478B"/>
<path d="M114.836 228.125C114.836 229.242 114.379 230.249 113.655 230.988C112.916 231.727 111.908 232.184 110.791 232.184H101.537C99.3181 232.184 97.4925 230.359 97.4925 228.141C97.4925 227.024 97.9489 226.018 98.6728 225.278C99.4125 224.539 100.42 224.099 101.537 224.099H110.791C113.01 224.083 114.836 225.907 114.836 228.125Z" fill="#699FF0"/>
<path opacity="0.4" d="M120.974 226.253H102.749C102.434 226.253 102.182 226.002 102.182 225.687V225.561C102.182 225.247 102.434 224.995 102.749 224.995H120.974C121.288 224.995 121.54 225.247 121.54 225.561V225.687C121.54 226.002 121.288 226.253 120.974 226.253Z" fill="#E9F3FE"/>
<path d="M108.383 216.674C108.918 217.728 108.965 218.907 108.619 219.946C108.273 220.984 107.533 221.896 106.479 222.431L88.3644 231.507C86.2555 232.561 83.6588 231.696 82.6043 229.588C82.0692 228.534 82.022 227.354 82.3682 226.316C82.7145 225.278 83.4542 224.366 84.5086 223.831L102.623 214.755C104.732 213.701 107.329 214.566 108.383 216.674Z" fill="#FAED48"/>
<path d="M99.0348 221.346C99.5699 222.4 99.6171 223.579 99.2708 224.617C98.9246 225.656 98.1849 226.568 97.1305 227.103L88.3644 231.491C86.2555 232.545 83.6588 231.68 82.6043 229.572C82.0692 228.518 82.022 227.339 82.3682 226.301C82.7145 225.262 83.4542 224.35 84.5086 223.815L93.2747 219.427C95.3993 218.388 97.9803 219.238 99.0348 221.346Z" fill="#FFD015"/>
<path opacity="0.5" d="M103.961 216.674L86.6804 225.325C86.3814 225.482 86.0194 225.356 85.8621 225.057L85.7991 224.932C85.6417 224.633 85.7676 224.271 86.0667 224.114L103.347 215.462C103.646 215.305 104.008 215.431 104.165 215.73L104.228 215.856C104.386 216.154 104.26 216.516 103.961 216.674Z" fill="#FFE2CC"/>
<path d="M318.737 134.03C319.084 134.423 319.131 134.879 318.958 135.351C318.643 136.232 317.588 137.223 316.361 138.198C316.204 138.324 316.062 138.434 315.952 138.544C315.92 138.576 315.889 138.607 315.857 138.623C315.826 138.638 315.81 138.67 315.779 138.686C314.63 139.74 315.07 139.975 313.009 142.115C310.664 144.553 309.058 144.584 308.602 144.364C308.209 144.175 308.996 142.885 309.877 141.438C309.924 141.375 309.956 141.297 310.003 141.234C310.113 141.045 310.239 140.841 310.349 140.652C311.372 138.906 311.104 138.088 310.868 135.492C310.664 133.385 307.579 123.695 307.579 123.695L312.064 122.924C312.064 122.924 313.418 130.632 314.897 131.827C315.7 132.457 316.581 132.472 317.352 132.944C317.4 132.976 317.463 133.007 317.51 133.039C317.95 133.322 318.391 133.621 318.737 134.03Z" fill="#FFB27D"/>
<path d="M318.737 134.03C319.084 134.423 319.131 134.879 318.958 135.351C318.564 136.232 317.541 137.207 316.361 138.182C316.204 138.308 316.078 138.434 315.952 138.544C315.92 138.575 315.889 138.607 315.857 138.623C315.826 138.638 315.81 138.67 315.779 138.686C314.63 139.74 315.07 139.975 313.009 142.115C310.664 144.553 309.059 144.584 308.602 144.364C308.209 144.175 308.996 142.885 309.877 141.438C310.333 141.265 312.442 140.416 314.047 138.371C315.464 136.578 316.392 134.266 317.352 132.928C317.4 132.96 317.463 132.991 317.51 133.023C317.95 133.322 318.391 133.621 318.737 134.03Z" fill="#233862"/>
<path d="M282.603 131.23C282.32 132.614 280.352 132.378 278.149 131.843C275.946 131.308 276.465 131.937 273.333 131.591C270.201 131.245 269.241 130.081 269.147 129.609C269.068 129.201 270.611 129.043 272.279 128.854C272.483 128.839 272.704 128.807 272.908 128.776C274.781 128.54 276.166 127.329 277.866 126.338C279.487 125.394 281.895 121.556 281.895 121.556L286.191 121.902C286.191 121.902 283.941 125.331 283.059 126.825C282.54 127.706 282.571 128.854 282.634 129.751C282.666 130.239 282.697 130.742 282.603 131.23Z" fill="#FFB27D"/>
<path d="M278.149 131.843C275.946 131.308 276.465 131.937 273.333 131.591C270.201 131.245 269.241 130.081 269.147 129.609C269.068 129.2 270.611 129.043 272.279 128.854L272.295 128.886C272.295 128.886 274.183 130.223 276.78 130.286C278.904 130.333 281.155 129.735 282.634 129.751C282.666 130.239 282.697 130.742 282.603 131.214C282.32 132.614 280.352 132.378 278.149 131.843Z" fill="#233862"/>
<path d="M299.081 103.734L303.094 114.54L308.35 128.666C308.35 128.666 309.782 128.807 311.136 128.414C312.395 128.052 313.827 127.108 313.827 127.108C313.827 127.108 312.363 111.945 309.656 103.246C308.964 101.013 308.177 99.2039 307.312 98.1815C303.109 93.2109 299.081 103.734 299.081 103.734Z" fill="#233862"/>
<path d="M303.172 86.5728C305.801 85.7234 313.323 86.8087 320.862 88.2873L322.436 85.6762L338.74 84.4021C338.74 84.4021 344.123 96.3252 341.18 103.923C340.739 105.04 339.889 105.763 338.426 105.779H338.189C338.189 105.779 328.495 105.779 325.332 105.779C317.226 105.779 308.177 100.21 307.012 99.9745C305.092 99.597 304.337 103.419 302.417 107.446C300.497 111.473 284.413 125.252 284.413 125.252C284.413 125.252 281.942 125.284 280.919 124.89C279.817 124.481 279.424 123.947 279.424 123.947C279.424 123.947 297.223 88.4761 303.172 86.5728Z" fill="#2B478B"/>
<path d="M317.903 63.0255C323.05 67.2096 335.435 74.4453 335.498 74.4138C335.498 74.4138 339.464 76.789 342.171 75.625C346.688 73.6745 350.15 66.8793 343.902 59.3604C340.786 55.601 338.205 54.3741 338.819 49.3878C339.48 43.9768 337.041 37.1815 330.808 36.8984C330.289 36.8669 327.141 36.4579 324.891 37.1658C319.146 38.9432 309.562 60.257 317.903 63.0255Z" fill="#233862"/>
<path d="M339.858 86.1797C339.527 87.1077 330.714 87.9257 325.693 87.5953C324.104 87.4852 322.892 87.265 322.451 86.9032C320.657 85.346 320.846 88.7593 320.594 72.4319C320.468 64.4569 327.362 57.3628 327.362 57.3628C327.362 57.3628 327.913 60.7604 334.743 56.7179C334.979 56.5763 337.67 60.5559 340.267 65.4636C343.115 70.8589 340.204 85.2202 339.858 86.1797Z" fill="#ABDDDA"/>
<path d="M303.094 114.556L308.35 128.681C308.35 128.681 309.782 128.823 311.136 128.43C312.395 128.068 313.827 127.124 313.827 127.124C313.827 127.124 312.363 111.961 309.656 103.262L303.094 114.556Z" fill="#2B478B"/>
<path d="M327.362 57.347C327.362 57.347 321.129 58.8728 319.508 61.5626C317.541 64.8344 307.721 79.5732 307.721 79.5732C307.721 79.5732 317.4 83.0023 319.052 81.3507C320.705 79.699 324.796 66.0456 324.796 66.0456L327.362 57.347Z" fill="#ABDDDA"/>
<path d="M334.759 56.7178C334.79 56.7178 332.241 59.0615 330.383 59.7379C329.659 60.0053 328.448 60.2884 328.448 60.2884C328.448 60.2884 327.472 59.2975 327.456 59.2975C326.591 58.4952 327.456 58.2593 327.33 56.7335C327.33 56.6549 327.315 56.5919 327.315 56.5133C327.141 54.8145 326.654 52.9426 326.622 52.8168L332.65 51.0865L332.461 51.4169C332.807 54.5471 333.94 56.6234 334.759 56.7178Z" fill="#FFB27D"/>
<path d="M332.634 51.0865C332.052 52.8325 330.446 55.192 327.204 55.6954C326.89 53.8078 326.638 52.9426 326.606 52.8168L332.634 51.0865Z" fill="#ED975D"/>
<path d="M325.599 54.6257C325.599 54.6257 333.736 54.0909 333.311 49.0259C332.902 43.9767 333.673 40.5004 328.463 40.6262C323.254 40.7521 322.404 42.7655 322.137 44.4958C321.869 46.2103 323.475 54.6257 325.599 54.6257Z" fill="#FFB27D"/>
<path d="M324.135 40.5319C324.135 40.5319 326.15 46.462 330.95 47.1383C334.444 47.6417 335.844 46.6979 335.844 46.6979C335.844 46.6979 333.893 44.8418 332.839 41.9947C332.524 41.161 331.784 40.5476 330.903 40.406C328.4 40.0285 325.19 38.3769 324.135 40.5319Z" fill="#233862"/>
<path d="M325.867 41.5859C325.867 41.5859 324.419 42.1679 323.396 44.3386C322.845 45.5183 322.436 48.3339 322.782 49.4979C322.782 49.4979 320.437 44.0869 322.137 41.6488C323.931 39.0691 325.867 41.5859 325.867 41.5859Z" fill="#233862"/>
<path d="M327.33 56.7335C327.33 56.7335 327.834 59.7379 328.448 60.2885C328.448 60.2885 326.89 59.7065 326.15 57.693C326.134 57.693 326.685 56.7965 327.33 56.7335Z" fill="#6BB7BF"/>
<path d="M321.523 66.9262C321.523 66.9262 316.975 72.3687 317.541 74.3349C318.108 76.3011 321.24 76.3011 321.24 76.3011C321.24 76.3011 320.657 72.1013 321.24 69.9148C321.838 67.7441 322.2 66.8004 321.523 66.9262Z" fill="#91CECF"/>
<path d="M334.759 81.1147C334.759 81.1147 338.268 78.6294 338.174 76.3171C338.095 74.0049 338.174 69.7578 338.788 70.3556C339.401 70.9533 341.337 75.7194 341.148 77.0721C340.959 78.4249 339.449 82.436 338.646 82.609C337.843 82.782 334.759 81.1147 334.759 81.1147Z" fill="#91CECF"/>
<path d="M321.885 90.0334C321.885 90.0334 326.811 105.417 339.291 107.242C339.291 107.242 343.729 102.9 343.336 93.0692C342.958 83.2382 321.885 90.0334 321.885 90.0334Z" fill="#ABDDDA"/>
<path d="M364.331 94.5009L361.939 101.076C361.325 102.775 359.437 103.656 357.737 103.042L294.832 80.2183C291.936 79.1644 289.135 77.8431 286.491 76.2702L277.993 71.2052L266.976 64.6459C265.072 63.5134 263.057 62.5538 260.964 61.7988L246.878 56.6866C246.359 56.4979 246.092 55.9159 246.28 55.3968C246.375 55.1294 246.564 54.9406 246.8 54.8305C247.036 54.7204 247.303 54.7047 247.571 54.7991L259.075 58.9675C262.884 60.3517 266.803 61.3584 270.8 62.0033L280.762 63.6077L291.102 65.2594C293.778 65.6841 296.406 66.3762 298.94 67.2885L362.38 90.3011C364.064 90.9146 364.945 92.8021 364.331 94.5009Z" fill="#AEC3FF"/>
<path d="M364.33 94.5004L361.938 101.075C361.324 102.774 359.436 103.655 357.736 103.042L294.831 80.2178C291.936 79.1639 289.134 77.8426 286.49 76.2696L277.992 71.2046C277.944 69.789 278.149 68.4205 278.621 67.1306C279.093 65.8408 279.817 64.6611 280.761 63.6072L291.101 65.2588C293.777 65.6835 296.405 66.3756 298.939 67.2879L362.379 90.3005C364.063 90.914 364.944 92.8016 364.33 94.5004Z" fill="#CDE0FB"/>
<path d="M364.33 94.5006L361.938 101.076C361.324 102.774 359.436 103.655 357.736 103.042L350.922 100.572L355.549 87.8312L362.363 90.3008C364.063 90.9142 364.944 92.8018 364.33 94.5006Z" fill="#FAED48"/>
<path d="M324.115 80.9715L306.822 74.6993L305.163 79.2682L322.457 85.5403L324.115 80.9715Z" fill="#8FADEF"/>
<path d="M254.353 57.2525L253.661 59.1401L246.846 56.6705C246.327 56.4818 246.059 55.8998 246.248 55.3807C246.343 55.1133 246.531 54.9245 246.767 54.8144C247.004 54.7043 247.271 54.6886 247.539 54.7829L254.353 57.2525Z" fill="#2B478B"/>
<path d="M292.581 79.652C292.581 79.652 292.392 76.9307 293.431 77.0408C294.69 77.1667 296.043 80.1711 295.414 80.7531C294.8 81.3193 292.597 80.3284 292.581 79.652Z" fill="#FFB27D"/>
<path d="M334.743 56.7021C334.743 56.7021 341.195 57.1268 342.801 59.6436C344.406 62.1603 349.6 76.4901 348.75 80.863C347.916 85.2516 336.175 92.6288 336.175 92.6288L334.932 89.939C334.932 89.939 341.794 78.6293 341.148 77.0721C338.772 71.2836 334.743 56.7021 334.743 56.7021Z" fill="#ABDDDA"/>
<path d="M336.474 90.8513L334.932 89.939C334.932 89.939 333.987 89.5615 333.421 89.6401C332.854 89.7188 331.532 89.4828 331.485 89.703C331.438 89.9232 332.854 90.8513 332.854 90.8513L332.902 90.8356C332.099 92.0625 329.077 92.3299 328.857 92.7861C328.589 93.3366 329.896 93.8714 330.604 94.1703C331.312 94.4691 333.122 94.7523 334.161 93.95C334.916 93.368 336.175 92.613 336.175 92.613L336.474 90.8513Z" fill="#FFB27D"/>
<path d="M333.484 55.3179C333.484 55.3179 329.911 59.8008 328.432 60.2885C328.432 60.2885 332.634 60.2885 335.593 56.7807C335.608 56.7807 334.617 55.3336 333.484 55.3179Z" fill="#6BB7BF"/>
<path d="M301.252 181.597V224.932C301.252 229.242 297.759 232.734 293.446 232.734H272.593C268.281 232.734 264.787 229.242 264.787 224.932V181.597C264.787 179.442 265.669 177.491 267.069 176.076C268.486 174.66 270.437 173.795 272.593 173.795C273.49 173.795 274.262 173.197 274.513 172.395C274.576 172.206 274.608 172.002 274.608 171.782V167.692C274.608 167.503 274.639 167.314 274.702 167.157C274.923 166.575 275.489 166.15 276.15 166.15H290.078C290.346 166.15 290.598 166.229 290.802 166.355C291.18 166.591 291.432 167.015 291.432 167.487V171.782C291.432 172.898 292.329 173.795 293.446 173.795C297.759 173.795 301.252 177.287 301.252 181.597Z" fill="#5A98E2"/>
<path d="M301.252 181.597V224.932C301.252 229.242 297.759 232.734 293.446 232.734H279.534C275.222 232.734 271.728 229.242 271.728 224.932V181.597C271.728 179.442 272.609 177.491 274.01 176.076C275.426 174.66 277.378 173.795 279.534 173.795C280.431 173.795 281.202 173.197 281.454 172.395C281.517 172.206 281.548 172.002 281.548 171.782V167.692C281.548 167.503 281.58 167.314 281.643 167.157C281.863 166.575 282.43 166.15 283.091 166.15H290.078C290.346 166.15 290.598 166.229 290.802 166.355C291.18 166.591 291.432 167.015 291.432 167.487V171.782C291.432 172.898 292.329 173.795 293.446 173.795C297.759 173.795 301.252 177.287 301.252 181.597Z" fill="#7BABEF"/>
<path d="M292.313 171.483H273.129V167.833C273.129 166.26 274.403 164.986 275.977 164.986H289.465C291.038 164.986 292.313 166.26 292.313 167.833V171.483Z" fill="#FFD015"/>
<path d="M301.252 188.392H264.787V204.342H301.252V188.392Z" fill="#2B478B"/>
<path d="M355.486 221.676C355.486 224.444 353.361 226.788 350.56 227.024L290.944 232.089C288.725 232.278 286.695 231.082 285.719 229.226C285.514 228.833 285.357 228.408 285.247 227.952C285.184 227.7 285.152 227.449 285.121 227.181C285.058 226.521 285.137 225.876 285.294 225.278C285.31 225.199 285.326 225.136 285.357 225.074C285.467 224.727 285.609 224.397 285.782 224.098C286.632 222.604 288.174 221.534 290.015 221.377L349.631 216.312C352.369 216.076 354.793 217.932 355.344 220.543C355.391 220.764 355.423 220.984 355.438 221.204C355.486 221.361 355.486 221.519 355.486 221.676Z" fill="#EAC3A2"/>
<path d="M288.741 227.055C288.741 227.763 288.379 228.392 287.828 228.77C287.545 228.959 287.214 229.084 286.836 229.116L285.735 229.21L281.344 229.588C280.478 229.666 279.691 229.195 279.314 228.455C279.188 228.219 279.125 227.968 279.093 227.684C278.999 226.536 279.849 225.529 280.998 225.435L285.294 225.073L285.389 225.058L286.49 224.963C286.553 224.963 286.616 224.947 286.679 224.947C287.749 224.947 288.646 225.765 288.741 226.851C288.741 226.945 288.741 226.992 288.741 227.055Z" fill="#EAC3A2"/>
<path d="M355.375 220.543C354.793 222.651 352.952 224.256 350.654 224.46L291.038 229.525C289.874 229.619 288.756 229.336 287.828 228.786C287.23 228.424 286.71 227.952 286.286 227.402C285.829 226.788 285.483 226.08 285.325 225.294C285.31 225.231 285.294 225.168 285.294 225.089L285.388 225.074C285.499 224.727 285.64 224.397 285.813 224.098C286.663 222.604 288.206 221.534 290.047 221.377L349.663 216.312C352.385 216.076 354.825 217.932 355.375 220.543Z" fill="#F9DDBF"/>
<path d="M286.899 225.923C286.899 226.489 286.663 227.024 286.286 227.401C286.018 227.669 285.656 227.873 285.263 227.952C285.168 227.968 285.089 227.983 284.995 227.999L279.502 228.471C279.44 228.471 279.377 228.487 279.314 228.487C279.188 228.251 279.125 227.999 279.093 227.716C278.999 226.568 279.849 225.561 280.998 225.467L285.294 225.105L285.388 225.089C285.499 224.743 285.64 224.413 285.813 224.114C286.175 224.318 286.474 224.617 286.679 224.995C286.805 225.231 286.868 225.482 286.899 225.766C286.899 225.813 286.899 225.86 286.899 225.923Z" fill="#F9DDBF"/>
<path d="M375.3 219.553C375.347 222.809 372.86 225.609 369.571 225.892L349.788 227.575L349.584 215.038H349.647L368.501 213.434C371.381 213.182 373.994 214.96 374.922 217.571C375.095 218.074 375.221 218.593 375.268 219.144C375.284 219.27 375.284 219.411 375.3 219.553Z" fill="#233862"/>
<path d="M374.922 217.555C374.119 219.788 372.073 221.487 369.571 221.692L349.788 223.375L349.647 215.022L368.501 213.418C371.381 213.182 373.993 214.943 374.922 217.555Z" fill="#2B478B"/>
<path d="M347.05 229.163L345.759 214C345.618 212.301 346.877 210.807 348.577 210.665L348.986 210.634C350.685 210.492 352.181 211.75 352.322 213.449L353.613 228.613C353.754 230.312 352.495 231.806 350.796 231.947L350.386 231.979C348.687 232.105 347.207 230.846 347.05 229.163Z" fill="#FAED48"/>
<path d="M468.296 233.898H9.61144C9.24947 233.898 8.96619 233.615 8.96619 233.253V232.671C8.96619 232.309 9.24947 232.026 9.61144 232.026H468.296C468.658 232.026 468.941 232.309 468.941 232.671V233.253C468.941 233.599 468.658 233.898 468.296 233.898Z" fill="#2E3552"/>
</svg>
