<svg width="22" height="21" viewBox="0 0 22 21" fill="none" xmlns="http://www.w3.org/2000/svg">
<path d="M22 0.849661C21.7797 1.15722 21.5728 1.47565 21.339 1.77077C18.9004 4.84012 16.4588 7.90635 14.0232 10.9804C13.9498 11.072 13.9108 11.2196 13.9093 11.3407C13.8973 13.5076 13.8884 15.6745 13.8958 17.8413C13.8973 18.284 13.737 18.5574 13.3548 18.75C11.9594 19.4521 10.5744 20.1775 9.17904 20.8812C9.02017 20.9619 8.82232 21.0116 8.64846 20.9977C8.35169 20.9728 8.15234 20.732 8.11038 20.4214C8.09539 20.3111 8.09239 20.1993 8.09239 20.089C8.09389 17.1796 8.09239 14.2718 8.09689 11.3625C8.09689 11.1869 8.04893 11.0565 7.94101 10.9229C5.36902 7.69665 2.80154 4.46732 0.231049 1.2411C0.0302065 0.987906 -0.0792078 0.719183 0.0676772 0.403861C0.213063 0.090092 0.478356 0.00155331 0.797606 0.00155331C7.59928 0.00465993 14.401 0.00465993 21.2026 0C21.5968 0 21.8516 0.172418 22 0.537446C22 0.641517 22 0.745589 22 0.849661ZM2.09559 1.38866C2.15554 1.47099 2.19002 1.52535 2.22898 1.57506C4.51469 4.44868 6.79741 7.32541 9.09211 10.1913C9.33042 10.4895 9.43534 10.7955 9.43384 11.1823C9.42335 13.7639 9.42785 16.347 9.42785 18.9286C9.42785 19.0141 9.42785 19.098 9.42785 19.2082C9.52377 19.1632 9.58222 19.1368 9.63918 19.1073C10.549 18.6397 11.4573 18.1691 12.37 17.7093C12.5139 17.6363 12.5589 17.5524 12.5589 17.3893C12.5574 15.2892 12.5679 13.1892 12.5649 11.0891C12.5649 10.7675 12.6548 10.505 12.8527 10.2565C15.1609 7.36425 17.4646 4.46577 19.7682 1.5704C19.8087 1.51914 19.8462 1.46322 19.9016 1.38555C13.9513 1.38866 8.04443 1.38866 2.09559 1.38866Z" fill="#2B48FF"/>
</svg>
