<svg width="35" height="45" viewBox="0 0 35 45" fill="none" xmlns="http://www.w3.org/2000/svg">
<path d="M34.6898 13.8876C33.041 5.9225 27.4206 2.44601 23.062 0.935132C19.449 -0.311711 15.5205 -0.311711 11.9074 0.935132C7.54879 2.44601 1.95714 5.9225 0.308321 13.8876C-0.207831 16.352 -0.0644553 18.919 0.652423 21.3393C2.11485 26.2974 6.2154 35.6414 17.4991 44.9707H17.5277C28.8114 35.6414 32.9119 26.312 34.3744 21.3393C35.0626 18.919 35.2059 16.352 34.6898 13.8876ZM17.6424 26.4734C17.6281 26.4734 17.6281 26.4734 17.6138 26.4734C17.5994 26.4734 17.5707 26.4734 17.5564 26.4734C17.5421 26.4734 17.5277 26.4734 17.5134 26.4734H17.4847C17.4704 26.4734 17.456 26.4734 17.4417 26.4734C17.4274 26.4734 17.3987 26.4734 17.3844 26.4734C17.37 26.4734 17.37 26.4734 17.3557 26.4734C12.653 26.4001 8.88218 22.4835 8.88218 17.6722C8.88218 12.8315 12.7103 8.90025 17.4417 8.87092H17.5564C22.2878 8.88558 26.1159 12.8168 26.1159 17.6722C26.1159 22.4835 22.3308 26.4001 17.6424 26.4734Z" fill="#2B48FF"/>
<path d="M17.4417 26.5467C17.4274 26.5467 17.413 26.5467 17.3844 26.5467C17.37 26.5467 17.37 26.5467 17.3557 26.5467C12.6673 26.4734 8.88218 22.5568 8.88218 17.7455C8.88218 12.9048 12.7103 8.97359 17.4417 8.94425V0.0696716C15.5778 0.0696716 13.6996 0.392384 11.9074 1.00847C7.54879 2.51935 1.95714 5.99584 0.308321 13.961C-0.207831 16.4253 -0.0644553 18.9923 0.652423 21.4127C2.11485 26.3707 6.2154 35.6853 17.4417 45V26.5467Z" fill="#647EFF"/>
<path d="M17.413 26.4733C22.2036 26.4733 26.0872 22.5329 26.0872 17.6721C26.0872 12.8113 22.2036 8.87085 17.413 8.87085C12.6224 8.87085 8.73877 12.8113 8.73877 17.6721C8.73877 22.5329 12.6224 26.4733 17.413 26.4733Z" fill="white"/>
</svg>
