<svg width="18" height="22" viewBox="0 0 18 22" fill="none" xmlns="http://www.w3.org/2000/svg">
<path d="M10.8933 20.5049C11.8108 20.5049 12.6815 20.5049 13.5522 20.5049C13.6594 20.5049 13.7732 20.5049 13.8737 20.5264C14.2287 20.5979 14.4564 20.9127 14.4363 21.299C14.4162 21.6781 14.155 21.9642 13.7933 22C13.7598 22 13.7264 22 13.6929 22C11.3554 22 9.02461 22 6.68713 22C6.44601 22 6.23839 21.9213 6.09104 21.721C5.9169 21.485 5.87671 21.2203 5.99727 20.9413C6.12453 20.6408 6.35894 20.5049 6.66034 20.5049C7.30331 20.4978 7.94629 20.5049 8.59596 20.5049C8.87726 20.5049 9.16526 20.5049 9.46665 20.5049C9.46665 20.1616 9.46665 19.8397 9.46665 19.482C9.36619 19.482 9.27242 19.482 9.17195 19.482C8.33475 19.482 7.49754 19.4963 6.66034 19.4748C6.05755 19.4605 5.73606 18.831 6.03746 18.3231C6.1915 18.0656 6.42592 17.9726 6.70052 17.9798C7.53103 17.9869 8.35484 17.9726 9.18535 17.9798C9.40637 17.9798 9.48674 17.9297 9.48674 17.665C9.47335 16.6564 9.47335 15.6406 9.48674 14.632C9.48674 14.4245 9.41977 14.3673 9.23223 14.3387C7.97977 14.1813 6.72062 14.0525 5.47485 13.8379C4.34295 13.6448 3.23784 13.2943 2.24659 12.6505C0.813293 11.7205 0.0497613 10.3614 0.00287776 8.56584C-0.0440058 6.59864 0.478411 4.86036 1.83134 3.46544C2.72212 2.5498 3.78705 1.97752 4.95914 1.6127C5.27393 1.51255 5.59541 1.45532 5.9102 1.36948C5.98388 1.34802 6.07094 1.29795 6.11113 1.23357C6.62685 0.353692 7.41717 0.0460942 8.32805 0.00317352C8.95093 -0.0254402 9.53363 0.139089 10.0694 0.511068C11.1009 1.21926 11.1679 2.61418 10.1967 3.42252C9.11837 4.3167 7.26313 4.2237 6.39913 3.17215C6.15801 2.88601 5.95709 2.8574 5.65569 2.94324C4.34965 3.31522 3.15747 3.91611 2.34705 5.11788C1.41608 6.48419 1.16157 8.02218 1.60362 9.64601C1.85143 10.5545 2.4944 11.1196 3.25124 11.5345C4.32956 12.1283 5.50834 12.3572 6.69383 12.5432C7.60471 12.6862 8.52228 12.7721 9.45995 12.8865C9.45995 12.4502 9.45995 12.0424 9.45995 11.6132C9.11837 11.5703 8.77679 11.5345 8.42852 11.4773C6.90815 11.2126 5.49495 10.669 4.28267 9.63886C3.345 8.84482 2.66184 7.85765 2.44082 6.57003C2.39394 6.31966 2.37384 6.05498 2.37384 5.79746C2.37384 5.39687 2.63505 5.11073 3.01012 5.06781C3.09049 5.06066 3.17756 5.06066 3.25793 5.06066C7.87931 5.06066 12.5007 5.06066 17.1221 5.06066C17.3632 5.06066 17.5909 5.07496 17.7784 5.26811C17.9526 5.44694 18.0062 5.6687 17.9995 5.92622C17.9526 7.24245 17.4168 8.31547 16.5394 9.20965C15.1463 10.626 13.4384 11.2698 11.5697 11.5345C11.3554 11.5631 11.054 11.5131 10.9535 11.6418C10.8397 11.7849 10.8933 12.0996 10.8933 12.3357C10.8866 13.0081 10.8932 13.001 11.5161 13.094C12.4739 13.237 13.4384 13.3944 14.3224 13.8594C16.0571 14.775 15.9165 16.8638 14.7578 17.8653C13.9809 18.5377 13.0633 18.8525 12.1122 19.0814C11.7773 19.1601 11.4358 19.2173 11.1009 19.2745C10.9535 19.296 10.8799 19.3532 10.8866 19.5249C10.8999 19.8468 10.8933 20.1544 10.8933 20.5049ZM3.83393 6.58434C4.02147 6.94916 4.15542 7.29253 4.35635 7.57867C5.0596 8.60876 6.05085 9.2168 7.15596 9.61024C9.17196 10.3256 11.2013 10.3256 13.224 9.61024C14.2354 9.25257 15.153 8.70176 15.8629 7.82188C16.1509 7.46421 16.3853 7.07077 16.4925 6.58434C12.273 6.58434 8.09363 6.58434 3.83393 6.58434ZM10.9133 17.8081C11.3688 17.7151 11.8041 17.6436 12.2261 17.5291C12.8155 17.3646 13.3982 17.1571 13.8737 16.7136C14.3961 16.2272 14.3425 15.5548 13.7464 15.2257C12.8691 14.7464 11.8912 14.6749 10.9133 14.5318C10.9133 15.6334 10.9133 16.6993 10.9133 17.8081ZM8.37494 2.59272C8.38163 2.57126 8.38833 2.5498 8.40173 2.52118C8.74331 2.52118 9.06479 2.4568 9.34609 2.22789C9.52693 2.07767 9.52693 1.95606 9.35279 1.79869C8.92414 1.40525 7.93959 1.39809 7.49085 1.78438C7.28992 1.95606 7.27652 2.11344 7.51094 2.2422C7.77884 2.39242 8.08694 2.47826 8.37494 2.59272Z" fill="#2B48FF"/>
<path d="M3.83398 6.58423C8.10039 6.58423 12.2797 6.58423 16.4858 6.58423C16.3787 7.06351 16.1443 7.4641 15.8563 7.82177C15.1463 8.70165 14.2354 9.25246 13.2174 9.61014C11.2014 10.3255 9.17201 10.3255 7.14932 9.61014C6.04421 9.2167 5.05296 8.60865 4.3497 7.57856C4.15547 7.28527 4.02152 6.94905 3.83398 6.58423Z" fill="white"/>
<path d="M8.37492 2.59266C8.08022 2.47821 7.77883 2.39236 7.50423 2.24214C7.27651 2.11338 7.2899 1.956 7.48413 1.78432C7.92618 1.39804 8.91073 1.40519 9.34608 1.79863C9.52021 1.956 9.52691 2.07761 9.33938 2.22784C9.06477 2.45675 8.73659 2.52113 8.39501 2.52113C8.39501 2.54974 8.38162 2.5712 8.37492 2.59266Z" fill="white"/>
</svg>
