<svg width="39" height="33" viewBox="0 0 39 33" fill="none" xmlns="http://www.w3.org/2000/svg">
<g clip-path="url(#clip0)">
<path d="M15.42 2.25C17.29 -0.75 21.72 -0.75 23.59 2.25L38.28 25.8C40.25 28.95 37.94 33 34.2 33H4.8C1.05 33 -1.25 28.95 0.720003 25.8L15.42 2.25Z" fill="#F44336"/>
<path d="M19.63 10.39C20.25 10.39 20.75 10.88 20.75 11.49V21.79C20.75 22.4 20.25 22.89 19.63 22.89C19.01 22.89 18.51 22.4 18.51 21.79V11.49C18.5 10.88 19.01 10.39 19.63 10.39Z" fill="white"/>
<path d="M19.63 25.35C20.25 25.35 20.75 25.84 20.75 26.45C20.75 27.06 20.25 27.55 19.63 27.55C19.01 27.55 18.51 27.06 18.51 26.45C18.5 25.85 19.01 25.35 19.63 25.35Z" fill="white"/>
</g>
<defs>
<clipPath id="clip0">
<rect width="39" height="33" fill="white"/>
</clipPath>
</defs>
</svg>
