<svg width="23" height="23" viewBox="0 0 23 23" fill="none" xmlns="http://www.w3.org/2000/svg">
<path d="M16 22.0084C15.9927 22.4841 15.6841 22.8952 15.2507 22.9758C15.1185 23 14.9862 23 14.876 23H1.13866C0.337925 23 0 22.6292 0 21.7585V1.23344C0 0.378899 0.345271 0 1.12397 0C6.30303 0 9.71901 0 14.8981 0C15.0009 0 15.1111 0 15.2287 0.0241851C15.6768 0.104802 16 0.52401 15.9927 1.01577C15.9853 1.50754 15.6547 1.92674 15.2066 1.99124C15.0817 2.00736 14.9642 2.00736 14.8613 2.00736H1.84389V20.9926H14.876C14.9862 20.9926 15.1038 20.9926 15.2287 21.0088C15.6694 21.0894 16 21.5167 16 22.0084Z" fill="#333333"/>
<path d="M14.118 17.144L18.024 12.662H6.918V10.538H18.024L14.118 6.056H17.358L22.29 11.6L17.358 17.144H14.118Z" fill="#333333"/>
</svg>
