<svg width="27" height="23" viewBox="0 0 27 23" fill="none" xmlns="http://www.w3.org/2000/svg">
<path d="M15.7553 22.978V16.1354C14.2195 16.1354 12.7087 16.1354 11.1705 16.1354C11.1705 16.2409 11.1705 16.3418 11.1705 16.4426C11.1705 18.5363 11.1682 20.6276 11.1751 22.7212C11.1751 22.9299 11.1294 23.0033 10.9035 23.001C8.76742 22.9918 6.85727 22.9964 4.72119 22.9941C3.99547 22.9941 3.18074 21.9438 3.18074 21.2146C3.18074 18.4675 3.18302 16.1766 3.17618 13.4295C3.17618 13.23 3.23095 13.097 3.38842 12.9686C6.0106 10.8039 11.2435 6.5937 12.9551 5.22012C13.2792 4.9587 13.7402 4.961 14.0643 5.22471C15.8854 6.71065 21.6889 11.4505 23.5329 12.9732C23.6652 13.0832 23.7428 13.2483 23.7428 13.4203C23.736 16.1881 23.7405 18.4996 23.7383 21.2674C23.7383 22.2763 22.8117 23.0033 21.73 23.001C21.7277 23.001 15.9311 22.9918 15.7553 22.978Z" fill="#333333"/>
<path d="M0.339585 12.1911C0.84622 12.7942 1.7431 12.8721 2.34559 12.3677C5.01113 10.1342 7.67667 7.90066 10.3422 5.66716C11.3737 4.80266 12.4053 3.93815 13.4573 3.05989C13.6445 3.21582 13.8156 3.3557 13.9845 3.49787C16.7664 5.82768 19.5484 8.15979 22.328 10.4896C22.9487 11.0101 23.9141 11.8173 24.6558 12.4388C25.2469 12.9341 26.1209 12.8676 26.6344 12.292C27.1753 11.6866 27.1068 10.751 26.4838 10.2305C25.6531 9.53566 24.5599 8.6207 23.905 8.07953C23.7772 7.97404 23.7315 7.86397 23.7338 7.69887C23.7384 5.40116 23.7384 3.10345 23.7384 0.805748C23.7384 0.179725 23.5079 0.00774143 22.805 0.0444314C21.8944 0.0925869 20.9815 0.0834144 20.0687 0.0421382C19.3909 0.0123277 19.1695 0.186605 19.1695 0.805748C19.1695 1.80784 19.1695 2.81223 19.1695 3.81432C19.1695 3.89458 19.1695 3.97484 19.1695 4.10555C19.0577 4.01612 18.9961 3.97025 18.9367 3.91981C17.6359 2.82828 16.3351 1.73675 15.0343 0.642936C14.7422 0.397572 14.409 0.20495 14.0416 0.0994663C13.0192 -0.194053 12.3938 0.207243 11.7914 0.714023C9.73059 2.44533 7.66526 4.17205 5.59992 5.90106C3.90429 7.3205 2.20866 8.73765 0.513028 10.1571C-0.0963038 10.6685 -0.173897 11.5811 0.339585 12.1911Z" fill="#333333"/>
</svg>
