<svg width="36" height="47" viewBox="0 0 36 47" fill="none" xmlns="http://www.w3.org/2000/svg">
<path d="M35.356 22.8142C33.8519 27.8975 29.6333 37.4317 18.0282 46.9686H17.9999C17.9793 46.9532 17.9612 46.9353 17.9406 46.92C6.37674 37.3985 2.17357 27.8744 0.672065 22.8142C0.257414 21.4244 0.0281963 19.9911 0.0024415 18.5526C-0.00270946 18.353 -0.000133981 18.1559 0.00501697 17.9511C0.0230453 17.0271 0.123489 16.1031 0.31665 15.1945C2.01389 7.05516 7.76493 3.49996 12.2463 1.954C15.9627 0.679354 20.0036 0.679354 23.72 1.954C28.2039 3.4974 33.9858 7.0526 35.6805 15.1945C36.2111 17.7131 36.0643 20.3366 35.356 22.8142Z" fill="#2B48FF"/>
<path d="M17.9408 46.9207V47C6.39232 37.4785 2.17626 27.9571 0.672187 22.8892C0.249809 21.4789 0.0205918 20.0174 0.00256348 18.5533C0.0283182 19.9918 0.257536 21.4251 0.672187 22.8149C2.17369 27.8726 6.37687 37.3992 17.9408 46.9207Z" fill="#2B48FF"/>
<path d="M17.9099 31.6428C24.7992 31.6428 30.3829 26.0118 30.3829 19.0652C30.3829 12.1186 24.7992 6.48764 17.9099 6.48764C11.0205 6.48764 5.43682 12.1186 5.43682 19.0652C5.43682 26.0118 11.023 31.6428 17.9099 31.6428Z" fill="white"/>
<path d="M23.3029 25.1338H20.4106V20.1581H15.7413V25.1338H12.849V13.232H15.7413V17.7368H20.4106V13.232H23.3029V25.1338Z" fill="black"/>
</svg>
