<svg width="45" height="42" viewBox="0 0 45 42" fill="none" xmlns="http://www.w3.org/2000/svg">
<path d="M42.2871 22.9444C43.2004 22.9542 43.9893 23.3049 44.1433 23.7961C44.1895 23.946 44.1892 24.0958 44.189 24.2206L44.164 39.7812C44.1626 40.6882 43.4499 41.0699 41.7782 41.0672L2.36831 41.0038C0.727519 41.0012 0.000628745 40.6089 0.00204677 39.7269C0.0114779 33.8604 0.0176985 29.9911 0.0271297 24.1246C0.027317 24.0081 0.0275176 23.8833 0.074169 23.7502C0.229776 23.2429 1.03528 22.8781 1.97949 22.8879C2.92371 22.8977 3.72802 23.2735 3.85104 23.7813C3.88177 23.9228 3.88155 24.0559 3.88136 24.1724L3.85774 37.0113L40.3111 37.0699L40.3347 24.2144C40.3349 24.0896 40.3351 23.9564 40.3663 23.815C40.5219 23.316 41.3429 22.9429 42.2871 22.9444Z" fill="#4CAF50"/>
<path d="M23.5033 0.805985C25.7287 3.07997 28.0467 5.48112 30.4265 7.93C30.8747 8.39116 31.0905 8.93132 31.0897 9.45526C31.0889 9.93157 30.9024 10.4076 30.5303 10.788C30.1737 11.1685 29.6934 11.39 29.1981 11.3892C28.6563 11.3883 28.115 11.1493 27.6823 10.7041C26.4305 9.43189 25.1787 8.14384 23.9888 6.90353L23.9864 8.41184C23.9767 14.4292 23.967 20.4624 23.9574 26.4798L23.9572 26.5909C23.9568 26.845 23.9563 27.1149 23.9094 27.4165C23.7221 28.4164 22.8696 29.0978 21.8791 29.0168C20.9505 28.9359 20.2087 28.1885 20.1174 27.204C20.1022 27.0134 20.1025 26.8388 20.1027 26.68C20.1028 26.6324 20.1029 26.5847 20.103 26.5371L20.1346 6.8497C19.4214 7.59477 18.6926 8.3557 17.9794 9.10077L17.8243 9.25929C17.3592 9.73485 16.894 10.2263 16.3979 10.7018C15.5452 11.5419 14.3997 11.5718 13.6116 10.7926C13.2406 10.4268 13.0402 9.93431 13.041 9.42625C13.0419 8.88643 13.2595 8.34696 13.6781 7.91896C16.0813 5.44601 18.438 3.03649 20.6707 0.769673C21.5079 -0.0704601 22.6534 -0.0686167 23.5033 0.805985Z" fill="#4CAF50"/>
</svg>
